0
SECTION
2
HEADER
9
$INSUNITS
70
1
0
ENDSEC
0
SECTION
2
TABLES
0
TABLE
2
LTYPE
0
LTYPE
72
65
70
64
2
CONTINUOUS
3
______
73
0
40
0
0
ENDTAB
0
TABLE
2
LAYER
0
ENDTAB
0
ENDSEC
0
SECTION
2
ENTITIES
0
LINE
8
front_outsideCutPath
10
0
20
7.597
11
0
21
6.58975
0
LINE
8
front_outsideCutPath
10
0
20
6.58975
11
0.472
21
6.58975
0
LINE
8
front_outsideCutPath
10
0.472
20
6.58975
11
0.472
21
5.49825
0
LINE
8
front_outsideCutPath
10
0.472
20
5.49825
11
0
21
5.49825
0
LINE
8
front_outsideCutPath
10
0
20
5.49825
11
0
21
4.40675
0
LINE
8
front_outsideCutPath
10
0
20
4.40675
11
0.472
21
4.40675
0
LINE
8
front_outsideCutPath
10
0.472
20
4.40675
11
0.472
21
3.31525
0
LINE
8
front_outsideCutPath
10
0.472
20
3.31525
11
0
21
3.31525
0
LINE
8
front_outsideCutPath
10
0
20
3.31525
11
0
21
2.22375
0
LINE
8
front_outsideCutPath
10
0
20
2.22375
11
0.472
21
2.22375
0
LINE
8
front_outsideCutPath
10
0.472
20
2.22375
11
0.472
21
1.13225
0
LINE
8
front_outsideCutPath
10
0.472
20
1.13225
11
0
21
1.13225
0
LINE
8
front_outsideCutPath
10
0
20
1.13225
11
0
21
0.125
0
LINE
8
front_outsideCutPath
10
0
20
0.125
11
1.24325
21
0.125
0
LINE
8
front_outsideCutPath
10
1.24325
20
0.125
11
1.24325
21
0.597
0
LINE
8
front_outsideCutPath
10
1.24325
20
0.597
11
2.33475
21
0.597
0
LINE
8
front_outsideCutPath
10
2.33475
20
0.597
11
2.33475
21
0.125
0
LINE
8
front_outsideCutPath
10
2.33475
20
0.125
11
3.42625
21
0.125
0
LINE
8
front_outsideCutPath
10
3.42625
20
0.125
11
3.42625
21
0.597
0
LINE
8
front_outsideCutPath
10
3.42625
20
0.597
11
4.51775
21
0.597
0
LINE
8
front_outsideCutPath
10
4.51775
20
0.597
11
4.51775
21
0.125
0
LINE
8
front_outsideCutPath
10
4.51775
20
0.125
11
5.60925
21
0.125
0
LINE
8
front_outsideCutPath
10
5.60925
20
0.125
11
5.60925
21
0.597
0
LINE
8
front_outsideCutPath
10
5.60925
20
0.597
11
6.70075
21
0.597
0
LINE
8
front_outsideCutPath
10
6.70075
20
0.597
11
6.70075
21
0.125
0
LINE
8
front_outsideCutPath
10
6.70075
20
0.125
11
7.944
21
0.125
0
LINE
8
front_outsideCutPath
10
7.944
20
0.125
11
7.944
21
1.13225
0
LINE
8
front_outsideCutPath
10
7.944
20
1.13225
11
7.472
21
1.13225
0
LINE
8
front_outsideCutPath
10
7.472
20
1.13225
11
7.472
21
2.22375
0
LINE
8
front_outsideCutPath
10
7.472
20
2.22375
11
7.944
21
2.22375
0
LINE
8
front_outsideCutPath
10
7.944
20
2.22375
11
7.944
21
3.31525
0
LINE
8
front_outsideCutPath
10
7.944
20
3.31525
11
7.472
21
3.31525
0
LINE
8
front_outsideCutPath
10
7.472
20
3.31525
11
7.472
21
4.40675
0
LINE
8
front_outsideCutPath
10
7.472
20
4.40675
11
7.944
21
4.40675
0
LINE
8
front_outsideCutPath
10
7.944
20
4.40675
11
7.944
21
5.49825
0
LINE
8
front_outsideCutPath
10
7.944
20
5.49825
11
7.472
21
5.49825
0
LINE
8
front_outsideCutPath
10
7.472
20
5.49825
11
7.472
21
6.58975
0
LINE
8
front_outsideCutPath
10
7.472
20
6.58975
11
7.944
21
6.58975
0
LINE
8
front_outsideCutPath
10
7.944
20
6.58975
11
7.944
21
7.597
0
LINE
8
front_outsideCutPath
10
7.944
20
7.597
11
0
21
7.597
0
LINE
8
front_labelLayer
10
2.7340851
20
4.0963401
11
2.7340851
21
4.0022104
0
LINE
8
front_labelLayer
10
2.7340851
20
4.0022104
11
2.5305023
21
4.0022104
0
LINE
8
front_labelLayer
10
2.5305023
20
4.0022104
11
2.5305023
21
3.2966026
0
LINE
8
front_labelLayer
10
2.5305023
20
3.2966026
11
2.4093742
21
3.2966026
0
LINE
8
front_labelLayer
10
2.4093742
20
3.2966026
11
2.4093742
21
4.0022104
0
LINE
8
front_labelLayer
10
2.4093742
20
4.0022104
11
2.2663554
21
4.0022104
0
LINE
8
front_labelLayer
10
2.2663554
20
4.0022104
11
2.2663554
21
4.0569369
0
LINE
8
front_labelLayer
10
2.2663554
20
4.0569369
11
2.4093742
21
4.1007182
0
LINE
8
front_labelLayer
10
2.4093742
20
4.1007182
11
2.4093742
21
4.1452291
0
LINE
8
front_labelLayer
10
2.8158101
20
4.4144838
11
2.7844336
21
4.3174354
0
LINE
8
front_labelLayer
10
2.5305023
20
4.1481479
11
2.5305023
21
4.0963401
0
LINE
8
front_labelLayer
10
2.5305023
20
4.0963401
11
2.7340851
21
4.0963401
0
ARC
8
front_labelLayer
10
2.9002706
20
4.1508725
40
0.4909289
50
167.577748
51
180.6586527
0
ARC
8
front_labelLayer
10
2.6694149
20
4.2046933
40
0.2539166
50
141.7432336
51
168.2322032
0
ARC
8
front_labelLayer
10
2.6318298
20
4.2243101
40
0.2124025
50
98.2551753
51
139.6203003
0
ARC
8
front_labelLayer
10
2.6648324
20
4.0718412
40
0.3681877
50
89.669869
51
99.9312265
0
ARC
8
front_labelLayer
10
2.6649219
20
4.0499545
40
0.3900737
50
81.5641542
51
89.7015332
0
ARC
8
front_labelLayer
10
2.637507
20
3.8586866
40
0.5832949
50
75.9738116
51
81.6565972
0
ARC
8
front_labelLayer
10
2.5905039
20
3.6636961
40
0.7838654
50
73.2958639
51
76.0949459
0
ARC
8
front_labelLayer
10
2.6023131
20
3.758221
40
0.5881229
50
71.9610231
51
76.5920826
0
ARC
8
front_labelLayer
10
2.6479227
20
3.951714
40
0.3893281
50
76.5183306
51
83.0213863
0
ARC
8
front_labelLayer
10
2.6638205
20
4.0795471
40
0.2605104
50
83.0760155
51
89.7923021
0
ARC
8
front_labelLayer
10
2.6632992
20
4.1767058
40
0.1633565
50
89.4859263
51
103.4195812
0
ARC
8
front_labelLayer
10
2.6485718
20
4.2332893
40
0.1049067
50
102.7678419
51
144.3379855
0
ARC
8
front_labelLayer
10
2.67824
20
4.2142006
40
0.1401514
50
145.0687991
51
162.1803331
0
ARC
8
front_labelLayer
10
2.7799587
20
4.1799754
40
0.2474681
50
161.8434404
51
171.7848245
0
ARC
8
front_labelLayer
10
2.9458451
20
4.1550566
40
0.415214
50
171.6524335
51
178.4387423
0
ARC
8
front_labelLayer
10
3.1027567
20
4.148373
40
0.5722544
50
178.1978569
51
180.0225428
0
LINE
8
front_labelLayer
10
3.3404554
20
4.1021776
11
3.3236726
21
3.9898057
0
LINE
8
front_labelLayer
10
3.0011508
20
3.7256588
11
3.0011508
21
3.2966026
0
LINE
8
front_labelLayer
10
3.0011508
20
3.2966026
11
2.8800226
21
3.2966026
0
LINE
8
front_labelLayer
10
2.8800226
20
3.2966026
11
2.8800226
21
4.0963401
0
LINE
8
front_labelLayer
10
2.8800226
20
4.0963401
11
2.9799898
21
4.0963401
0
LINE
8
front_labelLayer
10
2.9799898
20
4.0963401
11
2.9938539
21
3.9482135
0
LINE
8
front_labelLayer
10
2.9938539
20
3.9482135
11
2.9996914
21
3.9482135
0
ARC
8
front_labelLayer
10
3.2461118
20
3.5548565
40
0.5560787
50
84.9924988
51
90.1283251
0
ARC
8
front_labelLayer
10
3.2594641
20
3.7044731
40
0.4058675
50
78.4892813
51
85.0266385
0
ARC
8
front_labelLayer
10
3.2076235
20
3.4686965
40
0.5338747
50
77.4453061
51
81.6357207
0
ARC
8
front_labelLayer
10
3.2308861
20
3.6290065
40
0.3718859
50
81.5887949
51
87.1914049
0
ARC
8
front_labelLayer
10
3.2359371
20
3.716627
40
0.2841242
50
87.3429743
51
89.9651098
0
ARC
8
front_labelLayer
10
3.2347676
20
3.7908765
40
0.2098788
50
89.6334906
51
137.0881216
0
ARC
8
front_labelLayer
10
3.2862886
20
3.73294
40
0.2871544
50
135.6207107
51
138.8373189
0
ARC
8
front_labelLayer
10
3.2787281
20
3.7403212
40
0.2766048
50
138.9575832
51
174.5422797
0
ARC
8
front_labelLayer
10
3.3688162
20
3.7262252
40
0.3676659
50
173.6908027
51
180.08826
0
ARC
8
front_labelLayer
10
3.3560691
20
3.7474326
40
0.4090453
50
139.4137865
51
150.6033722
0
ARC
8
front_labelLayer
10
3.2827342
20
3.810274
40
0.3124687
50
124.2322225
51
139.4160671
0
ARC
8
front_labelLayer
10
3.243516
20
3.8694733
40
0.2414642
50
89.6795775
51
124.4406313
0
ARC
8
front_labelLayer
10
3.5546735
20
3.692982
40
0.6256665
50
349.1761088
51
0.3863589
0
ARC
8
front_labelLayer
10
3.7653143
20
3.650989
40
0.4108907
50
330.2507397
51
349.4116991
0
ARC
8
front_labelLayer
10
3.8301398
20
3.6172955
40
0.3379024
50
318.1440594
51
329.7566396
0
ARC
8
front_labelLayer
10
3.8418421
20
3.6079177
40
0.3229299
50
278.8959136
51
317.9979231
0
ARC
8
front_labelLayer
10
3.8116933
20
3.7523593
40
0.4703551
50
269.7504265
51
279.8034292
0
ARC
8
front_labelLayer
10
3.8068058
20
3.6709758
40
0.3889774
50
253.5436415
51
270.4181471
0
ARC
8
front_labelLayer
10
3.7938566
20
3.6208871
40
0.337277
50
238.811528
51
253.24284
0
ARC
8
front_labelLayer
10
3.7896788
20
3.6124851
40
0.3279268
50
207.7947829
51
238.6757583
0
ARC
8
front_labelLayer
10
3.8495669
20
3.6491699
40
0.3980372
50
205.6556052
51
208.4463042
0
ARC
8
front_labelLayer
10
3.8958258
20
3.6684529
40
0.4480922
50
188.9102405
51
205.3172245
0
ARC
8
front_labelLayer
10
4.0514775
20
3.6948146
40
0.6059516
50
179.774357
51
189.0932249
0
ARC
8
front_labelLayer
10
4.074434
20
3.7014618
40
0.628918
50
169.2442537
51
180.388173
0
ARC
8
front_labelLayer
10
3.8608584
20
3.7436793
40
0.411219
50
150.7110276
51
169.4696682
0
ARC
8
front_labelLayer
10
3.7926838
20
3.7786893
40
0.334644
50
138.1758759
51
150.228608
0
ARC
8
front_labelLayer
10
3.7813416
20
3.7873939
40
0.3203892
50
99.1759815
51
137.9832917
0
ARC
8
front_labelLayer
10
3.8125581
20
3.6404892
40
0.4704499
50
89.7327643
51
100.0761025
0
ARC
8
front_labelLayer
10
3.8187966
20
3.703936
40
0.4070179
50
73.5222259
51
90.5693176
0
ARC
8
front_labelLayer
10
3.8426653
20
3.7906565
40
0.3170933
50
41.1445559
51
73.2133802
0
ARC
8
front_labelLayer
10
3.7971017
20
3.751495
40
0.3771722
50
13.501354
51
41.0703601
0
ARC
8
front_labelLayer
10
3.6210538
20
3.7054266
40
0.5591227
50
1.1277607
51
13.8798605
0
ARC
8
front_labelLayer
10
3.4688195
20
3.6972942
40
0.7115062
50
359.992496
51
1.5412434
0
ARC
8
front_labelLayer
10
4.1844014
20
3.6940519
40
0.6133728
50
179.7058343
51
187.9161866
0
ARC
8
front_labelLayer
10
3.9594333
20
3.6617326
40
0.3860987
50
187.763681
51
200.0978794
0
ARC
8
front_labelLayer
10
3.8355089
20
3.6163254
40
0.2541173
50
200.0846481
51
216.9132957
0
ARC
8
front_labelLayer
10
3.7902532
20
3.5840102
40
0.1985294
50
217.3009808
51
261.7098156
0
ARC
8
front_labelLayer
10
3.8112629
20
3.6842745
40
0.3008419
50
260.5035388
51
270.2476624
0
ARC
8
front_labelLayer
10
3.815273
20
3.6647726
40
0.2813503
50
269.4481607
51
284.7255244
0
ARC
8
front_labelLayer
10
3.8375453
20
3.5821703
40
0.1958005
50
284.566277
51
322.633222
0
ARC
8
front_labelLayer
10
3.785476
20
3.6197885
40
0.2600199
50
323.0087061
51
342.6392613
0
ARC
8
front_labelLayer
10
3.6365257
20
3.6684708
40
0.4167158
50
342.3615468
51
353.7537415
0
ARC
8
front_labelLayer
10
3.4167476
20
3.6949596
40
0.6380758
50
353.536511
51
0.2012687
0
ARC
8
front_labelLayer
10
3.4504445
20
3.7002857
40
0.6043829
50
359.7075634
51
7.8972044
0
ARC
8
front_labelLayer
10
3.671793
20
3.7320179
40
0.380775
50
7.7439034
51
20.0690517
0
ARC
8
front_labelLayer
10
3.7951315
20
3.777279
40
0.2493943
50
20.0256448
51
37.4351894
0
ARC
8
front_labelLayer
10
3.8360513
20
3.806315
40
0.1992607
50
37.9579216
51
80.4005026
0
ARC
8
front_labelLayer
10
3.8127967
20
3.7025604
40
0.3054923
50
79.3451141
51
90.3174948
0
ARC
8
front_labelLayer
10
3.8084915
20
3.7197818
40
0.2882779
50
89.4807683
51
103.8803258
0
ARC
8
front_labelLayer
10
3.7842692
20
3.8120258
40
0.1929217
50
103.468654
51
142.3117614
0
ARC
8
front_labelLayer
10
3.8313555
20
3.7789117
40
0.2504415
50
142.9024939
51
162.3751383
0
ARC
8
front_labelLayer
10
3.9797317
20
3.7294646
40
0.4068306
50
162.0652898
51
173.1676586
0
ARC
8
front_labelLayer
10
4.2111239
20
3.6999519
40
0.6400932
50
173.0087138
51
180.2462416
0
LINE
8
front_labelLayer
10
5.0610586
20
3.2966026
11
4.9399304
21
3.2966026
0
LINE
8
front_labelLayer
10
4.9399304
20
3.2966026
11
4.9399304
21
3.813951
0
LINE
8
front_labelLayer
10
4.5137929
20
3.7161729
11
4.5137929
21
3.2966026
0
LINE
8
front_labelLayer
10
4.5137929
20
3.2966026
11
4.3926648
21
3.2966026
0
LINE
8
front_labelLayer
10
4.3926648
20
3.2966026
11
4.3926648
21
4.0963401
0
LINE
8
front_labelLayer
10
4.3926648
20
4.0963401
11
4.4911726
21
4.0963401
0
LINE
8
front_labelLayer
10
4.4911726
20
4.0963401
11
4.5108742
21
3.9868869
0
LINE
8
front_labelLayer
10
4.5108742
20
3.9868869
11
4.5167117
21
3.9868869
0
LINE
8
front_labelLayer
10
5.0610586
20
3.8183291
11
5.0610586
21
3.2966026
0
ARC
8
front_labelLayer
10
4.5975254
20
3.8159135
40
0.3424107
50
359.6716159
51
8.6876132
0
ARC
8
front_labelLayer
10
4.7244384
20
3.83604
40
0.213915
50
8.4932296
51
22.6579658
0
ARC
8
front_labelLayer
10
4.7889181
20
3.8628362
40
0.1440892
50
22.7022395
51
42.3422038
0
ARC
8
front_labelLayer
10
4.796162
20
3.8660934
40
0.1365634
50
43.3792374
51
71.5384801
0
ARC
8
front_labelLayer
10
4.7690582
20
3.7903517
40
0.2169969
50
71.0832757
51
84.3686743
0
ARC
8
front_labelLayer
10
4.7568959
20
3.6869291
40
0.3211199
50
84.0198427
51
90.1510745
0
ARC
8
front_labelLayer
10
4.753447
20
3.6414521
40
0.366605
50
89.5933059
51
100.371614
0
ARC
8
front_labelLayer
10
4.7275396
20
3.7773843
40
0.2282318
50
100.1175702
51
118.1601441
0
ARC
8
front_labelLayer
10
4.7014315
20
3.8285803
40
0.1707781
50
118.5438235
51
139.1925681
0
ARC
8
front_labelLayer
10
4.7241942
20
3.8133061
40
0.198017
50
140.1516877
51
160.3146667
0
ARC
8
front_labelLayer
10
4.8616632
20
3.761816
40
0.3448033
50
159.9534382
51
171.3801723
0
ARC
8
front_labelLayer
10
5.0862148
20
3.7257204
40
0.5722321
50
171.1766503
51
178.3219242
0
ARC
8
front_labelLayer
10
5.2896074
20
3.7164932
40
0.7758146
50
178.0806402
51
180.0236591
0
ARC
8
front_labelLayer
10
4.7239202
20
3.855655
40
0.2452696
50
116.9443516
51
147.6525771
0
ARC
8
front_labelLayer
10
4.749508
20
3.8128354
40
0.2950551
50
115.8073024
51
117.6060731
0
ARC
8
front_labelLayer
10
4.7625
20
3.782527
40
0.3280001
50
94.3226042
51
115.5455546
0
ARC
8
front_labelLayer
10
4.7703537
20
3.7142742
40
0.3966598
50
89.9582203
51
94.7107282
0
ARC
8
front_labelLayer
10
4.7735973
20
3.632708
40
0.478235
50
80.5586697
51
90.3539528
0
ARC
8
front_labelLayer
10
4.8034838
20
3.8058255
40
0.3025617
50
65.109403
51
80.763919
0
ARC
8
front_labelLayer
10
4.8384219
20
3.8832107
40
0.2176613
50
46.5581357
51
64.8783927
0
ARC
8
front_labelLayer
10
4.8412136
20
3.8912659
40
0.2099225
50
19.3849402
51
45.5995563
0
ARC
8
front_labelLayer
10
4.7197638
20
3.8456963
40
0.339623
50
6.9635389
51
19.8363003
0
ARC
8
front_labelLayer
10
4.5324809
20
3.8205157
40
0.5285821
50
359.762981
51
7.2116696
0
LINE
8
front_labelLayer
10
5.6776445
20
3.3965697
11
5.6776445
21
3.3038994
0
LINE
8
front_labelLayer
10
5.3186383
20
3.5264541
11
5.3186383
21
4.0022104
0
LINE
8
front_labelLayer
10
5.3186383
20
4.0022104
11
5.2040773
21
4.0022104
0
LINE
8
front_labelLayer
10
5.2040773
20
4.0022104
11
5.2040773
21
4.0605854
0
LINE
8
front_labelLayer
10
5.2040773
20
4.0605854
11
5.3186383
21
4.1109338
0
LINE
8
front_labelLayer
10
5.3186383
20
4.1109338
11
5.3697164
21
4.2816807
0
LINE
8
front_labelLayer
10
5.3697164
20
4.2816807
11
5.4397664
21
4.2816807
0
LINE
8
front_labelLayer
10
5.4397664
20
4.2816807
11
5.4397664
21
4.0963401
0
LINE
8
front_labelLayer
10
5.4397664
20
4.0963401
11
5.671807
21
4.0963401
0
LINE
8
front_labelLayer
10
5.671807
20
4.0963401
11
5.671807
21
4.0022104
0
LINE
8
front_labelLayer
10
5.671807
20
4.0022104
11
5.4397664
21
4.0022104
0
LINE
8
front_labelLayer
10
5.4397664
20
4.0022104
11
5.4397664
21
3.5315619
0
ARC
8
front_labelLayer
10
5.5690207
20
3.7797971
40
0.397822
50
269.8805508
51
278.3025903
0
ARC
8
front_labelLayer
10
5.572378
20
3.7516119
40
0.3694481
50
278.4185774
51
279.0066534
0
ARC
8
front_labelLayer
10
5.528147
20
4.0341737
40
0.6554506
50
278.9586524
51
280.5096326
0
ARC
8
front_labelLayer
10
5.5706353
20
3.806107
40
0.4234599
50
280.4858205
51
282.625961
0
ARC
8
front_labelLayer
10
5.6080719
20
3.6397815
40
0.2529735
50
282.5863303
51
285.5807531
0
ARC
8
front_labelLayer
10
5.6272163
20
3.569502
40
0.1801349
50
285.7194163
51
286.2570532
0
ARC
8
front_labelLayer
10
5.6267267
20
3.4115916
40
0.1191228
50
287.98801
51
295.3052044
0
ARC
8
front_labelLayer
10
5.5979683
20
3.4986033
40
0.2107631
50
283.3074358
51
288.1190171
0
ARC
8
front_labelLayer
10
5.5676542
20
3.6250429
40
0.3407855
50
280.0062705
51
283.3741414
0
ARC
8
front_labelLayer
10
5.5469603
20
3.7374776
40
0.4551065
50
279.1886595
51
280.112393
0
ARC
8
front_labelLayer
10
5.5348494
20
3.8063101
40
0.5249905
50
275.5258807
51
279.2938638
0
ARC
8
front_labelLayer
10
5.548892
20
3.6596353
40
0.3776452
50
270.8938006
51
275.5481389
0
ARC
8
front_labelLayer
10
5.550677
20
3.5896569
40
0.3076482
50
270.0003502
51
270.7647075
0
ARC
8
front_labelLayer
10
5.5457904
20
3.5983382
40
0.3163672
50
253.7848129
51
270.885369
0
ARC
8
front_labelLayer
10
5.5083098
20
3.4705145
40
0.1831622
50
190.3817783
51
253.8772038
0
ARC
8
front_labelLayer
10
5.6993461
20
3.5221687
40
0.3807321
50
179.3550768
51
192.8479238
0
ARC
8
front_labelLayer
10
5.6836674
20
3.5300353
40
0.2439058
50
179.641387
51
189.7505752
0
ARC
8
front_labelLayer
10
5.5975722
20
3.5146797
40
0.1564545
50
189.548155
51
205.7871009
0
ARC
8
front_labelLayer
10
5.562185
20
3.4983634
40
0.1174953
50
206.1298857
51
221.4083554
0
ARC
8
front_labelLayer
10
5.5582148
20
3.4953506
40
0.1125256
50
221.5949033
51
262.350362
0
ARC
8
front_labelLayer
10
5.5676496
20
3.5438579
40
0.1618828
50
261.3260899
51
270.1917592
0
LINE
8
left_outsideCutPath
10
8.541
20
7.597
11
8.541
21
6.58975
0
LINE
8
left_outsideCutPath
10
8.541
20
6.58975
11
8.069
21
6.58975
0
LINE
8
left_outsideCutPath
10
8.069
20
6.58975
11
8.069
21
5.49825
0
LINE
8
left_outsideCutPath
10
8.069
20
5.49825
11
8.541
21
5.49825
0
LINE
8
left_outsideCutPath
10
8.541
20
5.49825
11
8.541
21
4.40675
0
LINE
8
left_outsideCutPath
10
8.541
20
4.40675
11
8.069
21
4.40675
0
LINE
8
left_outsideCutPath
10
8.069
20
4.40675
11
8.069
21
3.31525
0
LINE
8
left_outsideCutPath
10
8.069
20
3.31525
11
8.541
21
3.31525
0
LINE
8
left_outsideCutPath
10
8.541
20
3.31525
11
8.541
21
2.22375
0
LINE
8
left_outsideCutPath
10
8.541
20
2.22375
11
8.069
21
2.22375
0
LINE
8
left_outsideCutPath
10
8.069
20
2.22375
11
8.069
21
1.13225
0
LINE
8
left_outsideCutPath
10
8.069
20
1.13225
11
8.541
21
1.13225
0
LINE
8
left_outsideCutPath
10
8.541
20
1.13225
11
8.541
21
0.125
0
LINE
8
left_outsideCutPath
10
8.541
20
0.125
11
9.31225
21
0.125
0
LINE
8
left_outsideCutPath
10
9.31225
20
0.125
11
9.31225
21
0.597
0
LINE
8
left_outsideCutPath
10
9.31225
20
0.597
11
10.40375
21
0.597
0
LINE
8
left_outsideCutPath
10
10.40375
20
0.597
11
10.40375
21
0.125
0
LINE
8
left_outsideCutPath
10
10.40375
20
0.125
11
11.49525
21
0.125
0
LINE
8
left_outsideCutPath
10
11.49525
20
0.125
11
11.49525
21
0.597
0
LINE
8
left_outsideCutPath
10
11.49525
20
0.597
11
12.58675
21
0.597
0
LINE
8
left_outsideCutPath
10
12.58675
20
0.597
11
12.58675
21
0.125
0
LINE
8
left_outsideCutPath
10
12.58675
20
0.125
11
13.67825
21
0.125
0
LINE
8
left_outsideCutPath
10
13.67825
20
0.125
11
13.67825
21
0.597
0
LINE
8
left_outsideCutPath
10
13.67825
20
0.597
11
14.76975
21
0.597
0
LINE
8
left_outsideCutPath
10
14.76975
20
0.597
11
14.76975
21
0.125
0
LINE
8
left_outsideCutPath
10
14.76975
20
0.125
11
15.541
21
0.125
0
LINE
8
left_outsideCutPath
10
15.541
20
0.125
11
15.541
21
1.13225
0
LINE
8
left_outsideCutPath
10
15.541
20
1.13225
11
16.013
21
1.13225
0
LINE
8
left_outsideCutPath
10
16.013
20
1.13225
11
16.013
21
2.22375
0
LINE
8
left_outsideCutPath
10
16.013
20
2.22375
11
15.541
21
2.22375
0
LINE
8
left_outsideCutPath
10
15.541
20
2.22375
11
15.541
21
3.31525
0
LINE
8
left_outsideCutPath
10
15.541
20
3.31525
11
16.013
21
3.31525
0
LINE
8
left_outsideCutPath
10
16.013
20
3.31525
11
16.013
21
4.40675
0
LINE
8
left_outsideCutPath
10
16.013
20
4.40675
11
15.541
21
4.40675
0
LINE
8
left_outsideCutPath
10
15.541
20
4.40675
11
15.541
21
5.49825
0
LINE
8
left_outsideCutPath
10
15.541
20
5.49825
11
16.013
21
5.49825
0
LINE
8
left_outsideCutPath
10
16.013
20
5.49825
11
16.013
21
6.58975
0
LINE
8
left_outsideCutPath
10
16.013
20
6.58975
11
15.541
21
6.58975
0
LINE
8
left_outsideCutPath
10
15.541
20
6.58975
11
15.541
21
7.597
0
LINE
8
left_outsideCutPath
10
15.541
20
7.597
11
8.541
21
7.597
0
LINE
8
left_labelLayer
10
11.1168508
20
4.4319963
11
11.1168508
21
3.2966026
0
LINE
8
left_labelLayer
10
11.1168508
20
3.2966026
11
10.9957226
21
3.2966026
0
LINE
8
left_labelLayer
10
10.9957226
20
3.2966026
11
10.9957226
21
4.4319963
0
LINE
8
left_labelLayer
10
10.9957226
20
4.4319963
11
11.1168508
21
4.4319963
0
LINE
8
left_labelLayer
10
12.0056101
20
3.7511979
11
12.0056101
21
3.6745807
0
LINE
8
left_labelLayer
10
12.0056101
20
3.6745807
11
11.4546961
21
3.6745807
0
LINE
8
left_labelLayer
10
11.9713148
20
3.4418104
11
11.9713148
21
3.3338166
0
LINE
8
left_labelLayer
10
11.4576148
20
3.7730885
11
11.8757258
21
3.7730885
0
ARC
8
left_labelLayer
10
11.7075625
20
3.752685
40
0.4706931
50
256.0087288
51
270.4849118
0
ARC
8
left_labelLayer
10
11.6732874
20
3.6196235
40
0.3332941
50
223.5465709
51
256.1956714
0
ARC
8
left_labelLayer
10
11.692197
20
3.6333671
40
0.3564818
50
194.0877886
51
223.0537558
0
ARC
8
left_labelLayer
10
11.8654538
20
3.6807451
40
0.5360733
50
181.3574685
51
194.4918998
0
ARC
8
left_labelLayer
10
12.0208141
20
3.6897616
40
0.6916242
50
179.9881907
51
181.7993076
0
ARC
8
left_labelLayer
10
11.9652226
20
3.6941698
40
0.6360471
50
168.9539505
51
180.3842593
0
ARC
8
left_labelLayer
10
11.7574883
20
3.7364674
40
0.4240608
50
149.4070556
51
169.1853402
0
ARC
8
left_labelLayer
10
11.6996263
20
3.7670368
40
0.3587089
50
140.1058074
51
148.9064937
0
ARC
8
left_labelLayer
10
11.6640543
20
3.7998293
40
0.3103936
50
92.4762156
51
140.538598
0
ARC
8
left_labelLayer
10
11.6799019
20
3.6827069
40
0.4282271
50
89.9641988
51
93.9177095
0
ARC
8
left_labelLayer
10
11.6836798
20
3.7419211
40
0.3690294
50
74.212529
51
90.5450185
0
ARC
8
left_labelLayer
10
11.7067928
20
3.827079
40
0.2807971
50
41.2065372
51
74.0232314
0
ARC
8
left_labelLayer
10
11.6630209
20
3.7891982
40
0.3386835
50
11.599372
51
41.1495791
0
ARC
8
left_labelLayer
10
11.5126198
20
3.7545125
40
0.4930015
50
359.6147794
51
12.0336436
0
ARC
8
left_labelLayer
10
11.9407847
20
3.6842953
40
0.4861857
50
181.1449257
51
190.8004875
0
ARC
8
left_labelLayer
10
11.7692555
20
3.6504679
40
0.311358
50
190.6007476
51
206.0273863
0
ARC
8
left_labelLayer
10
11.6933669
20
3.6145925
40
0.2274261
50
206.2951629
51
222.5558467
0
ARC
8
left_labelLayer
10
11.6866421
20
3.6110711
40
0.2200997
50
223.0645419
51
258.1401584
0
ARC
8
left_labelLayer
10
11.7134093
20
3.7212849
40
0.3334809
50
257.531111
51
270.4320922
0
ARC
8
left_labelLayer
10
11.7137084
20
4.027557
40
0.6397474
50
270.1984493
51
292.2089872
0
ARC
8
left_labelLayer
10
11.6827139
20
4.1164484
40
0.7337758
50
291.8260152
51
293.1605804
0
ARC
8
left_labelLayer
10
11.6815137
20
4.0007573
40
0.7271827
50
287.9022618
51
293.4860577
0
ARC
8
left_labelLayer
10
11.7342693
20
3.8379868
40
0.5560764
50
281.9934404
51
287.885097
0
ARC
8
left_labelLayer
10
11.7470429
20
3.7920899
40
0.5085357
50
275.9057805
51
281.6602355
0
ARC
8
left_labelLayer
10
11.7214556
20
4.0309238
40
0.7487352
50
271.9121388
51
275.9729025
0
ARC
8
left_labelLayer
10
11.7121158
20
4.2690139
40
0.9870052
50
269.9669267
51
271.9928452
0
ARC
8
left_labelLayer
10
11.6763864
20
3.7707406
40
0.2387779
50
89.4424077
51
106.2087001
0
ARC
8
left_labelLayer
10
11.6620221
20
3.8231209
40
0.1844719
50
106.4658506
51
137.9174175
0
ARC
8
left_labelLayer
10
11.7032042
20
3.7869567
40
0.2392748
50
138.0993893
51
160.5866507
0
ARC
8
left_labelLayer
10
11.8090727
20
3.7480095
40
0.3520728
50
160.3353398
51
172.531392
0
ARC
8
left_labelLayer
10
11.9135616
20
3.7312806
40
0.4578595
50
172.155332
51
174.7609358
0
ARC
8
left_labelLayer
10
11.4629623
20
3.7754333
40
0.4127702
50
359.6745211
51
8.9222652
0
ARC
8
left_labelLayer
10
11.6104584
20
3.7994632
40
0.2633331
50
8.734427
51
23.277296
0
ARC
8
left_labelLayer
10
11.6804744
20
3.8288535
40
0.1874032
50
23.4824321
51
39.7070262
0
ARC
8
left_labelLayer
10
11.6976784
20
3.8417281
40
0.1659463
50
40.0821127
51
80.6244108
0
ARC
8
left_labelLayer
10
11.6799755
20
3.7605873
40
0.2489232
50
79.6465447
51
90.2912528
0
LINE
8
left_labelLayer
10
12.5725773
20
4.0963401
11
12.5725773
21
4.0022104
0
LINE
8
left_labelLayer
10
12.5725773
20
4.0022104
11
12.3689945
21
4.0022104
0
LINE
8
left_labelLayer
10
12.3689945
20
4.0022104
11
12.3689945
21
3.2966026
0
LINE
8
left_labelLayer
10
12.3689945
20
3.2966026
11
12.2478664
21
3.2966026
0
LINE
8
left_labelLayer
10
12.2478664
20
3.2966026
11
12.2478664
21
4.0022104
0
LINE
8
left_labelLayer
10
12.2478664
20
4.0022104
11
12.1048476
21
4.0022104
0
LINE
8
left_labelLayer
10
12.1048476
20
4.0022104
11
12.1048476
21
4.0569369
0
LINE
8
left_labelLayer
10
12.1048476
20
4.0569369
11
12.2478664
21
4.1007182
0
LINE
8
left_labelLayer
10
12.2478664
20
4.1007182
11
12.2478664
21
4.1452291
0
LINE
8
left_labelLayer
10
12.6543023
20
4.4144838
11
12.6229258
21
4.3174354
0
LINE
8
left_labelLayer
10
12.3689945
20
4.1481479
11
12.3689945
21
4.0963401
0
LINE
8
left_labelLayer
10
12.3689945
20
4.0963401
11
12.5725773
21
4.0963401
0
ARC
8
left_labelLayer
10
12.7387628
20
4.1508725
40
0.4909289
50
167.577748
51
180.6586527
0
ARC
8
left_labelLayer
10
12.5079071
20
4.2046933
40
0.2539166
50
141.7432336
51
168.2322032
0
ARC
8
left_labelLayer
10
12.470322
20
4.2243101
40
0.2124025
50
98.2551753
51
139.6203003
0
ARC
8
left_labelLayer
10
12.5033246
20
4.0718412
40
0.3681877
50
89.669869
51
99.9312265
0
ARC
8
left_labelLayer
10
12.5034141
20
4.0499545
40
0.3900737
50
81.5641542
51
89.7015332
0
ARC
8
left_labelLayer
10
12.4759992
20
3.8586866
40
0.5832949
50
75.9738116
51
81.6565972
0
ARC
8
left_labelLayer
10
12.4289961
20
3.6636961
40
0.7838654
50
73.2958639
51
76.0949459
0
ARC
8
left_labelLayer
10
12.4408053
20
3.758221
40
0.5881229
50
71.9610231
51
76.5920826
0
ARC
8
left_labelLayer
10
12.4864149
20
3.951714
40
0.3893281
50
76.5183306
51
83.0213863
0
ARC
8
left_labelLayer
10
12.5023127
20
4.0795471
40
0.2605104
50
83.0760155
51
89.7923021
0
ARC
8
left_labelLayer
10
12.5017913
20
4.1767058
40
0.1633565
50
89.4859263
51
103.4195812
0
ARC
8
left_labelLayer
10
12.487064
20
4.2332893
40
0.1049067
50
102.7678419
51
144.3379855
0
ARC
8
left_labelLayer
10
12.5167322
20
4.2142006
40
0.1401514
50
145.0687991
51
162.1803331
0
ARC
8
left_labelLayer
10
12.6184509
20
4.1799754
40
0.2474681
50
161.8434404
51
171.7848245
0
ARC
8
left_labelLayer
10
12.7843373
20
4.1550566
40
0.415214
50
171.6524335
51
178.4387423
0
ARC
8
left_labelLayer
10
12.9412489
20
4.148373
40
0.5722544
50
178.1978569
51
180.0225428
0
LINE
8
left_labelLayer
10
13.0862773
20
3.3965697
11
13.0862773
21
3.3038994
0
LINE
8
left_labelLayer
10
12.7272711
20
3.5264541
11
12.7272711
21
4.0022104
0
LINE
8
left_labelLayer
10
12.7272711
20
4.0022104
11
12.6127101
21
4.0022104
0
LINE
8
left_labelLayer
10
12.6127101
20
4.0022104
11
12.6127101
21
4.0605854
0
LINE
8
left_labelLayer
10
12.6127101
20
4.0605854
11
12.7272711
21
4.1109338
0
LINE
8
left_labelLayer
10
12.7272711
20
4.1109338
11
12.7783492
21
4.2816807
0
LINE
8
left_labelLayer
10
12.7783492
20
4.2816807
11
12.8483992
21
4.2816807
0
LINE
8
left_labelLayer
10
12.8483992
20
4.2816807
11
12.8483992
21
4.0963401
0
LINE
8
left_labelLayer
10
12.8483992
20
4.0963401
11
13.0804398
21
4.0963401
0
LINE
8
left_labelLayer
10
13.0804398
20
4.0963401
11
13.0804398
21
4.0022104
0
LINE
8
left_labelLayer
10
13.0804398
20
4.0022104
11
12.8483992
21
4.0022104
0
LINE
8
left_labelLayer
10
12.8483992
20
4.0022104
11
12.8483992
21
3.5315619
0
ARC
8
left_labelLayer
10
12.9776536
20
3.7797971
40
0.397822
50
269.8805508
51
278.3025903
0
ARC
8
left_labelLayer
10
12.9810108
20
3.7516119
40
0.3694481
50
278.4185774
51
279.0066534
0
ARC
8
left_labelLayer
10
12.9367798
20
4.0341737
40
0.6554506
50
278.9586524
51
280.5096326
0
ARC
8
left_labelLayer
10
12.9792681
20
3.806107
40
0.4234599
50
280.4858205
51
282.625961
0
ARC
8
left_labelLayer
10
13.0167047
20
3.6397815
40
0.2529735
50
282.5863303
51
285.5807531
0
ARC
8
left_labelLayer
10
13.0358491
20
3.569502
40
0.1801349
50
285.7194163
51
286.2570532
0
ARC
8
left_labelLayer
10
13.0353595
20
3.4115916
40
0.1191228
50
287.98801
51
295.3052044
0
ARC
8
left_labelLayer
10
13.0066011
20
3.4986033
40
0.2107631
50
283.3074358
51
288.1190171
0
ARC
8
left_labelLayer
10
12.976287
20
3.6250429
40
0.3407855
50
280.0062705
51
283.3741414
0
ARC
8
left_labelLayer
10
12.9555931
20
3.7374776
40
0.4551065
50
279.1886595
51
280.112393
0
ARC
8
left_labelLayer
10
12.9434822
20
3.8063101
40
0.5249905
50
275.5258807
51
279.2938638
0
ARC
8
left_labelLayer
10
12.9575248
20
3.6596353
40
0.3776452
50
270.8938006
51
275.5481389
0
ARC
8
left_labelLayer
10
12.9593098
20
3.5896569
40
0.3076482
50
270.0003502
51
270.7647075
0
ARC
8
left_labelLayer
10
12.9544232
20
3.5983382
40
0.3163672
50
253.7848129
51
270.885369
0
ARC
8
left_labelLayer
10
12.9169426
20
3.4705145
40
0.1831622
50
190.3817783
51
253.8772038
0
ARC
8
left_labelLayer
10
13.1079789
20
3.5221687
40
0.3807321
50
179.3550768
51
192.8479238
0
ARC
8
left_labelLayer
10
13.0923002
20
3.5300353
40
0.2439058
50
179.641387
51
189.7505752
0
ARC
8
left_labelLayer
10
13.006205
20
3.5146797
40
0.1564545
50
189.548155
51
205.7871009
0
ARC
8
left_labelLayer
10
12.9708178
20
3.4983634
40
0.1174953
50
206.1298857
51
221.4083554
0
ARC
8
left_labelLayer
10
12.9668476
20
3.4953506
40
0.1125256
50
221.5949033
51
262.350362
0
ARC
8
left_labelLayer
10
12.9762824
20
3.5438579
40
0.1618828
50
261.3260899
51
270.1917592
0
LINE
8
back_outsideCutPath
10
0
20
15.194
11
0
21
14.18675
0
LINE
8
back_outsideCutPath
10
0
20
14.18675
11
0.472
21
14.18675
0
LINE
8
back_outsideCutPath
10
0.472
20
14.18675
11
0.472
21
13.09525
0
LINE
8
back_outsideCutPath
10
0.472
20
13.09525
11
0
21
13.09525
0
LINE
8
back_outsideCutPath
10
0
20
13.09525
11
0
21
12.00375
0
LINE
8
back_outsideCutPath
10
0
20
12.00375
11
0.472
21
12.00375
0
LINE
8
back_outsideCutPath
10
0.472
20
12.00375
11
0.472
21
10.91225
0
LINE
8
back_outsideCutPath
10
0.472
20
10.91225
11
0
21
10.91225
0
LINE
8
back_outsideCutPath
10
0
20
10.91225
11
0
21
9.82075
0
LINE
8
back_outsideCutPath
10
0
20
9.82075
11
0.472
21
9.82075
0
LINE
8
back_outsideCutPath
10
0.472
20
9.82075
11
0.472
21
8.72925
0
LINE
8
back_outsideCutPath
10
0.472
20
8.72925
11
0
21
8.72925
0
LINE
8
back_outsideCutPath
10
0
20
8.72925
11
0
21
7.722
0
LINE
8
back_outsideCutPath
10
0
20
7.722
11
1.24325
21
7.722
0
LINE
8
back_outsideCutPath
10
1.24325
20
7.722
11
1.24325
21
8.194
0
LINE
8
back_outsideCutPath
10
1.24325
20
8.194
11
2.33475
21
8.194
0
LINE
8
back_outsideCutPath
10
2.33475
20
8.194
11
2.33475
21
7.722
0
LINE
8
back_outsideCutPath
10
2.33475
20
7.722
11
3.42625
21
7.722
0
LINE
8
back_outsideCutPath
10
3.42625
20
7.722
11
3.42625
21
8.194
0
LINE
8
back_outsideCutPath
10
3.42625
20
8.194
11
4.51775
21
8.194
0
LINE
8
back_outsideCutPath
10
4.51775
20
8.194
11
4.51775
21
7.722
0
LINE
8
back_outsideCutPath
10
4.51775
20
7.722
11
5.60925
21
7.722
0
LINE
8
back_outsideCutPath
10
5.60925
20
7.722
11
5.60925
21
8.194
0
LINE
8
back_outsideCutPath
10
5.60925
20
8.194
11
6.70075
21
8.194
0
LINE
8
back_outsideCutPath
10
6.70075
20
8.194
11
6.70075
21
7.722
0
LINE
8
back_outsideCutPath
10
6.70075
20
7.722
11
7.944
21
7.722
0
LINE
8
back_outsideCutPath
10
7.944
20
7.722
11
7.944
21
8.72925
0
LINE
8
back_outsideCutPath
10
7.944
20
8.72925
11
7.472
21
8.72925
0
LINE
8
back_outsideCutPath
10
7.472
20
8.72925
11
7.472
21
9.82075
0
LINE
8
back_outsideCutPath
10
7.472
20
9.82075
11
7.944
21
9.82075
0
LINE
8
back_outsideCutPath
10
7.944
20
9.82075
11
7.944
21
10.91225
0
LINE
8
back_outsideCutPath
10
7.944
20
10.91225
11
7.472
21
10.91225
0
LINE
8
back_outsideCutPath
10
7.472
20
10.91225
11
7.472
21
12.00375
0
LINE
8
back_outsideCutPath
10
7.472
20
12.00375
11
7.944
21
12.00375
0
LINE
8
back_outsideCutPath
10
7.944
20
12.00375
11
7.944
21
13.09525
0
LINE
8
back_outsideCutPath
10
7.944
20
13.09525
11
7.472
21
13.09525
0
LINE
8
back_outsideCutPath
10
7.472
20
13.09525
11
7.472
21
14.18675
0
LINE
8
back_outsideCutPath
10
7.472
20
14.18675
11
7.944
21
14.18675
0
LINE
8
back_outsideCutPath
10
7.944
20
14.18675
11
7.944
21
15.194
0
LINE
8
back_outsideCutPath
10
7.944
20
15.194
11
0
21
15.194
0
LINE
8
back_labelLayer
10
2.5440016
20
11.0004942
11
2.5352453
21
11.0004942
0
LINE
8
back_labelLayer
10
2.5352453
20
11.0004942
11
2.5097063
21
10.8976082
0
LINE
8
back_labelLayer
10
2.5097063
20
10.8976082
11
2.4228734
21
10.8976082
0
LINE
8
back_labelLayer
10
2.4228734
20
10.8976082
11
2.4228734
21
12.033002
0
LINE
8
back_labelLayer
10
2.4228734
20
12.033002
11
2.5440016
21
12.033002
0
LINE
8
back_labelLayer
10
2.5440016
20
12.033002
11
2.5440016
21
11.7571801
0
LINE
8
back_labelLayer
10
2.5381641
20
11.5908114
11
2.5440016
21
11.5908114
0
ARC
8
back_labelLayer
10
2.7986484
20
11.3402901
40
0.3702078
50
74.2393489
51
90.562477
0
ARC
8
back_labelLayer
10
2.8231271
20
11.4300921
40
0.2771342
50
38.5631717
51
74.067025
0
ARC
8
back_labelLayer
10
2.7601308
20
11.381109
40
0.3569286
50
16.4709225
51
38.4075431
0
ARC
8
back_labelLayer
10
2.5786337
20
11.324198
40
0.5471225
50
5.1340062
51
16.7972304
0
ARC
8
back_labelLayer
10
2.3495557
20
11.2998631
40
0.777468
50
359.8779266
51
5.4094873
0
ARC
8
back_labelLayer
10
2.4168244
20
11.2940166
40
0.7102098
50
350.6563862
51
0.3380367
0
ARC
8
back_labelLayer
10
2.664428
20
11.2519022
40
0.4590557
50
335.8304613
51
350.8256236
0
ARC
8
back_labelLayer
10
2.7733384
20
11.2048921
40
0.3404492
50
321.3159608
51
335.5438665
0
ARC
8
back_labelLayer
10
2.8149666
20
11.1709699
40
0.2867521
50
274.0639736
51
321.4081008
0
ARC
8
back_labelLayer
10
2.7955711
20
11.2938065
40
0.4107924
50
269.9223054
51
275.5483408
0
ARC
8
back_labelLayer
10
2.7929721
20
11.2504179
40
0.367409
50
255.7754745
51
270.318431
0
ARC
8
back_labelLayer
10
2.7824857
20
11.2038304
40
0.3196759
50
245.9800668
51
255.5455867
0
ARC
8
back_labelLayer
10
2.7621781
20
11.1566067
40
0.2682762
50
215.5849805
51
245.8362115
0
ARC
8
back_labelLayer
10
0.0185949
20
11.7550451
40
2.5254075
50
358.1123065
51
0.0484383
0
ARC
8
back_labelLayer
10
0.7213442
20
11.7314501
40
1.8222625
50
355.7240261
51
358.125931
0
ARC
8
back_labelLayer
10
1.0167931
20
11.7112893
40
1.5261338
50
355.4721762
51
355.6517877
0
ARC
8
back_labelLayer
10
2.7699006
20
11.4332858
40
0.2753991
50
95.1835793
51
145.1108816
0
ARC
8
back_labelLayer
10
2.7941066
20
11.2967866
40
0.4136945
50
89.8743182
51
96.8145706
0
ARC
8
back_labelLayer
10
2.7749667
20
11.2686695
40
0.3403935
50
89.5733209
51
100.732175
0
ARC
8
back_labelLayer
10
2.749769
20
11.3959887
40
0.2106116
50
100.4471276
51
119.6701283
0
ARC
8
back_labelLayer
10
2.7264004
20
11.4396765
40
0.1610897
50
120.1399855
51
142.4249104
0
ARC
8
back_labelLayer
10
2.7650569
20
11.4141034
40
0.2073478
50
143.3381115
51
161.256076
0
ARC
8
back_labelLayer
10
2.9267183
20
11.3567079
40
0.3788863
50
160.8926384
51
171.233323
0
ARC
8
back_labelLayer
10
3.1965631
20
11.3131751
40
0.6522162
50
171.0666815
51
177.8457593
0
ARC
8
back_labelLayer
10
3.4771721
20
11.2988995
40
0.9331708
50
177.6175058
51
180.0425356
0
ARC
8
back_labelLayer
10
3.3448683
20
11.2950776
40
0.8008728
50
179.7761414
51
185.7075216
0
ARC
8
back_labelLayer
10
3.0291498
20
11.2625495
40
0.4834854
50
185.5927405
51
194.204835
0
ARC
8
back_labelLayer
10
2.8268459
20
11.2100469
40
0.2744864
50
193.9430509
51
208.0219924
0
ARC
8
back_labelLayer
10
2.7450079
20
11.1684119
40
0.1826899
50
208.5533851
51
217.5602928
0
ARC
8
back_labelLayer
10
2.7383394
20
11.1656385
40
0.1757228
50
218.1689137
51
253.804846
0
ARC
8
back_labelLayer
10
2.7709329
20
11.266125
40
0.2813314
50
253.1381691
51
266.8484063
0
ARC
8
back_labelLayer
10
2.7800702
20
11.3739087
40
0.3894676
50
266.3779668
51
270.0514998
0
ARC
8
back_labelLayer
10
2.7830048
20
11.2258904
40
0.2414632
50
269.3867236
51
285.8632113
0
ARC
8
back_labelLayer
10
2.8009434
20
11.1610598
40
0.1741988
50
286.0163093
51
326.8495687
0
ARC
8
back_labelLayer
10
2.7143638
20
11.2184165
40
0.2780521
50
326.7102604
51
343.6662994
0
ARC
8
back_labelLayer
10
2.5522604
20
11.2679491
40
0.4475472
50
343.4172996
51
353.6367315
0
ARC
8
back_labelLayer
10
2.3074552
20
11.296996
40
0.6940657
50
353.4934512
51
0.2204194
0
ARC
8
back_labelLayer
10
2.2859214
20
11.3025643
40
0.7156001
50
359.7679444
51
6.3097115
0
ARC
8
back_labelLayer
10
2.5554356
20
11.3334942
40
0.4443207
50
6.1650053
51
16.0394295
0
ARC
8
back_labelLayer
10
2.7290974
20
11.3846702
40
0.2632821
50
15.7780196
51
32.0149704
0
ARC
8
back_labelLayer
10
2.7830595
20
11.4155528
40
0.2011695
50
32.7047453
51
35.5223414
0
ARC
8
back_labelLayer
10
2.8030559
20
11.429758
40
0.1766411
50
35.5408035
51
79.8010879
0
ARC
8
back_labelLayer
10
2.7793349
20
11.3289102
40
0.2801492
50
78.6783156
51
90.3749492
0
LINE
8
back_labelLayer
10
3.9201922
20
10.8976082
11
3.8304406
21
10.8976082
0
LINE
8
back_labelLayer
10
3.8304406
20
10.8976082
11
3.8063609
21
11.0114395
0
LINE
8
back_labelLayer
10
3.8063609
20
11.0114395
11
3.8005234
21
11.0114395
0
LINE
8
back_labelLayer
10
3.6662609
20
11.3726348
11
3.8019828
21
11.3770129
0
LINE
8
back_labelLayer
10
3.8019828
20
11.3770129
11
3.8019828
21
11.4266317
0
LINE
8
back_labelLayer
10
3.4057625
20
11.5492192
11
3.3685484
21
11.6418895
0
LINE
8
back_labelLayer
10
3.9201922
20
11.4434145
11
3.9201922
21
10.8976082
0
LINE
8
back_labelLayer
10
3.7990641
20
11.2186707
11
3.7990641
21
11.2909098
0
LINE
8
back_labelLayer
10
3.7990641
20
11.2909098
11
3.6779359
21
11.285802
0
ARC
8
back_labelLayer
10
3.4064138
20
11.3226092
40
0.5021444
50
314.7445377
51
321.7070978
0
ARC
8
back_labelLayer
10
3.5297885
20
11.1972512
40
0.3262599
50
304.8485232
51
314.8531136
0
ARC
8
back_labelLayer
10
3.5890503
20
11.1128971
40
0.2231711
50
294.3933195
51
304.7372475
0
ARC
8
back_labelLayer
10
3.5688047
20
11.1653532
40
0.2793245
50
281.2978936
51
293.7315787
0
ARC
8
back_labelLayer
10
3.5420399
20
11.2950663
40
0.4117683
50
272.9333321
51
281.4139433
0
ARC
8
back_labelLayer
10
3.533163
20
11.428226
40
0.5452117
50
269.9543009
51
273.1488708
0
ARC
8
back_labelLayer
10
3.5301032
20
11.2547333
40
0.371728
50
258.6718953
51
270.4045962
0
ARC
8
back_labelLayer
10
3.5042805
20
11.1312133
40
0.2455446
50
238.3272419
51
258.9185355
0
ARC
8
back_labelLayer
10
3.486493
20
11.0987609
40
0.2085946
50
227.7692917
51
237.8049375
0
ARC
8
back_labelLayer
10
3.4809218
20
11.0909837
40
0.1990945
50
192.0826895
51
227.4521405
0
ARC
8
back_labelLayer
10
3.5835637
20
11.1162863
40
0.3047763
50
179.5455668
51
192.6949477
0
ARC
8
back_labelLayer
10
3.4882111
20
11.1273225
40
0.2095915
50
115.4904622
51
182.3568073
0
ARC
8
back_labelLayer
10
3.5931775
20
10.9347929
40
0.4287181
50
101.356885
51
117.0798927
0
ARC
8
back_labelLayer
10
3.6774717
20
10.5408859
40
0.8315268
50
92.4695225
51
101.7066169
0
ARC
8
back_labelLayer
10
3.7016954
20
10.1899323
40
1.183233
50
91.7161002
51
92.9091764
0
ARC
8
back_labelLayer
10
3.4540905
20
11.4284937
40
0.3478973
50
359.6933376
51
8.0038611
0
ARC
8
back_labelLayer
10
3.5856912
20
11.4476674
40
0.21491
50
7.8271396
51
20.6043672
0
ARC
8
back_labelLayer
10
3.6601588
20
11.4761557
40
0.1351812
50
20.4094419
51
41.4477588
0
ARC
8
back_labelLayer
10
3.6711644
20
11.4822052
40
0.1229582
50
42.7295694
51
71.0382189
0
ARC
8
back_labelLayer
10
3.6452568
20
11.4117598
40
0.198006
50
70.5719457
51
83.9928041
0
ARC
8
back_labelLayer
10
3.6328812
20
11.311238
40
0.2992764
50
83.6505523
51
90.1752913
0
ARC
8
back_labelLayer
10
3.6350523
20
11.21616
40
0.3943651
50
90.4484609
51
103.7666071
0
ARC
8
back_labelLayer
10
3.6814319
20
11.0205777
40
0.5953676
50
103.6227372
51
112.4318811
0
ARC
8
back_labelLayer
10
3.7609464
20
10.8198202
40
0.811282
50
112.2123766
51
115.9639613
0
ARC
8
back_labelLayer
10
3.6336216
20
11.1503145
40
0.5584888
50
106.3569725
51
118.3349833
0
ARC
8
back_labelLayer
10
3.657455
20
11.0766724
40
0.6358658
50
104.5166554
51
106.5488628
0
ARC
8
back_labelLayer
10
3.6399628
20
11.1495169
40
0.5609637
50
90.0715257
51
104.6520458
0
ARC
8
back_labelLayer
10
3.6421634
20
11.1989011
40
0.5115873
50
81.5681064
51
90.3248863
0
ARC
8
back_labelLayer
10
3.6717457
20
11.3916193
40
0.3166159
50
68.2270998
51
81.7497236
0
ARC
8
back_labelLayer
10
3.7129401
20
11.4941119
40
0.2061549
50
47.8682327
51
68.2932978
0
ARC
8
back_labelLayer
10
3.7196265
20
11.5074623
40
0.1918105
50
19.2332153
51
46.6741118
0
ARC
8
back_labelLayer
10
3.6082406
20
11.466027
40
0.3106382
50
6.337849
51
19.6815183
0
ARC
8
back_labelLayer
10
3.4435502
20
11.4450544
40
0.4766448
50
359.8028768
51
6.6580976
0
ARC
8
back_labelLayer
10
3.559258
20
11.3164611
40
0.3334884
50
269.5790296
51
282.0416525
0
ARC
8
back_labelLayer
10
3.5835832
20
11.2085716
40
0.2229018
50
281.7121922
51
306.4594392
0
ARC
8
back_labelLayer
10
3.5944085
20
11.1907874
40
0.2021742
50
306.9870837
51
313.8568873
0
ARC
8
back_labelLayer
10
3.5930881
20
11.1904636
40
0.2028589
50
314.1891417
51
347.4271217
0
ARC
8
back_labelLayer
10
3.4914664
20
11.2159288
40
0.3075993
50
346.917968
51
0.2825435
0
ARC
8
back_labelLayer
10
3.4242244
20
11.218609
40
0.3748395
50
359.8221896
51
0.0094424
0
ARC
8
back_labelLayer
10
3.706755
20
10.3967828
40
0.8894862
50
91.8566902
51
96.4475783
0
ARC
8
back_labelLayer
10
3.6666349
20
10.743981
40
0.5399794
50
96.3544153
51
102.995591
0
ARC
8
back_labelLayer
10
3.6121983
20
10.9752587
40
0.3023857
50
102.7997581
51
113.2430837
0
ARC
8
back_labelLayer
10
3.5673239
20
11.0825894
40
0.1860606
50
113.5891852
51
121.6798196
0
ARC
8
back_labelLayer
10
3.5361284
20
11.1301056
40
0.1292512
50
120.9735837
51
172.4178755
0
ARC
8
back_labelLayer
10
3.5970971
20
11.1179302
40
0.1913358
50
171.2127115
51
180.2054377
0
ARC
8
back_labelLayer
10
3.5788659
20
11.115814
40
0.1731093
50
179.5266204
51
192.7785081
0
ARC
8
back_labelLayer
10
3.5203036
20
11.1016187
40
0.1128612
50
192.3263227
51
222.0579646
0
ARC
8
back_labelLayer
10
3.5159592
20
11.0990251
40
0.1079026
50
222.5807696
51
229.2539969
0
ARC
8
back_labelLayer
10
3.5306678
20
11.1179657
40
0.1318582
50
229.7838287
51
254.2722583
0
ARC
8
back_labelLayer
10
3.550273
20
11.1833053
40
0.2000692
50
253.9401117
51
266.4529146
0
ARC
8
back_labelLayer
10
3.5565244
20
11.2553084
40
0.2723269
50
266.0774278
51
270.0596365
0
LINE
8
back_labelLayer
10
4.7031469
20
11.6703473
11
4.6659328
21
11.5674614
0
LINE
8
back_labelLayer
10
4.6914719
20
11.0318707
11
4.6914719
21
10.9246067
0
ARC
8
back_labelLayer
10
4.4854856
20
11.3357028
40
0.4527048
50
256.4243018
51
270.4888957
0
ARC
8
back_labelLayer
10
4.4493096
20
11.1945132
40
0.3069752
50
221.7976466
51
256.8020512
0
ARC
8
back_labelLayer
10
4.484346
20
11.2203992
40
0.3503714
50
196.0168487
51
221.1347297
0
ARC
8
back_labelLayer
10
4.6604088
20
11.2742109
40
0.5344565
50
183.5913023
51
196.3538535
0
ARC
8
back_labelLayer
10
4.8576556
20
11.2915874
40
0.7324216
50
179.9388468
51
183.9814306
0
ARC
8
back_labelLayer
10
4.7935607
20
11.2966711
40
0.6683402
50
169.897797
51
180.3688038
0
ARC
8
back_labelLayer
10
4.5608932
20
11.3397115
40
0.4317333
50
153.0874453
51
170.1051138
0
ARC
8
back_labelLayer
10
4.4726172
20
11.3818937
40
0.3339332
50
138.6551471
51
152.6855071
0
ARC
8
back_labelLayer
10
4.456141
20
11.3938995
40
0.3136382
50
101.49132
51
138.3134001
0
ARC
8
back_labelLayer
10
4.4939658
20
11.2364777
40
0.475474
50
89.5891762
51
102.1788113
0
ARC
8
back_labelLayer
10
4.4968745
20
11.1653271
40
0.5466126
50
77.770151
51
89.9475367
0
ARC
8
back_labelLayer
10
4.4865354
20
11.1082846
40
0.6045541
50
74.6793453
51
77.9577156
0
ARC
8
back_labelLayer
10
4.5424223
20
11.3107321
40
0.394535
50
70.0945703
51
74.7388813
0
ARC
8
back_labelLayer
10
4.5955804
20
11.4564107
40
0.2394614
50
63.503004
51
70.1862642
0
ARC
8
back_labelLayer
10
4.6091569
20
11.4863589
40
0.2066055
50
62.9398994
51
63.1671605
0
ARC
8
back_labelLayer
10
4.4669531
20
11.0667018
40
0.5388442
50
68.3293184
51
74.8831314
0
ARC
8
back_labelLayer
10
4.4385379
20
10.965967
40
0.6435045
50
74.7797199
51
77.4496012
0
ARC
8
back_labelLayer
10
4.4683515
20
11.1058915
40
0.5004466
50
77.3002844
51
81.7340697
0
ARC
8
back_labelLayer
10
4.4901378
20
11.257682
40
0.3471009
50
81.690736
51
87.5077679
0
ARC
8
back_labelLayer
10
4.4943434
20
11.336396
40
0.2682795
50
87.6740815
51
89.9758899
0
ARC
8
back_labelLayer
10
4.4884515
20
11.3360616
40
0.268681
50
88.7193939
51
112.5666721
0
ARC
8
back_labelLayer
10
4.4693601
20
11.3991842
40
0.2031719
50
114.4266008
51
161.6633138
0
ARC
8
back_labelLayer
10
4.6590143
20
11.3249512
40
0.4066934
50
160.1418216
51
175.1368379
0
ARC
8
back_labelLayer
10
4.9200428
20
11.2956405
40
0.6693045
50
174.5310729
51
180.1551126
0
ARC
8
back_labelLayer
10
4.8373502
20
11.290798
40
0.5866174
50
179.7040031
51
188.0742642
0
ARC
8
back_labelLayer
10
4.6260711
20
11.2598879
40
0.3730922
50
187.9317155
51
200.3883134
0
ARC
8
back_labelLayer
10
4.5118075
20
11.2175596
40
0.2512405
50
200.4181345
51
216.6393245
0
ARC
8
back_labelLayer
10
4.4639155
20
11.1833226
40
0.1923829
50
216.9695322
51
261.3102853
0
ARC
8
back_labelLayer
10
4.4850517
20
11.2818525
40
0.2930366
50
260.1356266
51
270.2694401
0
ARC
8
back_labelLayer
10
4.4840762
20
11.4958763
40
0.5070625
50
270.2659306
51
286.2890519
0
ARC
8
back_labelLayer
10
4.4532592
20
11.6108058
40
0.6260279
50
286.0459872
51
292.3655528
0
ARC
8
back_labelLayer
10
4.5353416
20
11.2317534
40
0.3445516
50
282.0345981
51
296.9453604
0
ARC
8
back_labelLayer
10
4.4999077
20
11.3914537
40
0.5081318
50
272.5981679
51
282.1876388
0
ARC
8
back_labelLayer
10
4.4897523
20
11.5470726
40
0.6640582
50
269.9651579
51
272.8648301
0
LINE
8
back_labelLayer
10
4.9950219
20
11.3069629
11
5.0008594
21
11.3069629
0
LINE
8
back_labelLayer
10
5.0964484
20
11.4237129
11
5.3547578
21
11.6973457
0
LINE
8
back_labelLayer
10
5.3547578
20
11.6973457
11
5.4985063
21
11.6973457
0
LINE
8
back_labelLayer
10
5.4985063
20
11.6973457
11
5.174525
21
11.3565817
0
LINE
8
back_labelLayer
10
5.174525
20
11.3565817
11
5.5211266
21
10.8976082
0
LINE
8
back_labelLayer
10
5.5211266
20
10.8976082
11
5.3744594
21
10.8976082
0
LINE
8
back_labelLayer
10
5.3744594
20
10.8976082
11
5.0920703
21
11.2755864
0
LINE
8
back_labelLayer
10
5.0920703
20
11.2755864
11
5.0008594
21
11.1967801
0
LINE
8
back_labelLayer
10
5.0008594
20
11.1967801
11
5.0008594
21
10.8976082
0
LINE
8
back_labelLayer
10
5.0008594
20
10.8976082
11
4.8811906
21
10.8976082
0
LINE
8
back_labelLayer
10
4.8811906
20
10.8976082
11
4.8811906
21
12.033002
0
LINE
8
back_labelLayer
10
4.8811906
20
12.033002
11
5.0008594
21
12.033002
0
LINE
8
back_labelLayer
10
5.0008594
20
12.033002
11
5.0008594
21
11.4310098
0
ARC
8
back_labelLayer
10
5.5859123
20
10.8928418
40
0.7167867
50
142.3227191
51
144.7077901
0
ARC
8
back_labelLayer
10
5.9684189
20
10.5978054
40
1.199858
50
140.4335959
51
142.3361777
0
ARC
8
back_labelLayer
10
6.4640995
20
10.1897913
40
1.8418656
50
139.2792701
51
140.4709856
0
ARC
8
back_labelLayer
10
7.0416704
20
9.6931342
40
2.6036112
50
138.3419116
51
139.2875423
0
ARC
8
back_labelLayer
10
4.193585
20
11.4325204
40
0.8072757
50
358.2741172
51
359.8927848
0
ARC
8
back_labelLayer
10
3.5653824
20
11.4500399
40
1.4357217
50
357.5039562
51
358.3303302
0
ARC
8
back_labelLayer
10
2.6246046
20
11.4915947
40
2.3774168
50
356.632783
51
357.4908419
0
ARC
8
back_labelLayer
10
1.0632562
20
11.5826675
40
3.941419
50
356.0329734
51
356.6442744
0
ARC
8
back_labelLayer
10
0.3993433
20
11.6269034
40
4.6068018
50
356.0176268
51
356.0553758
0
LINE
8
right_outsideCutPath
10
8.541
20
15.194
11
8.541
21
14.18675
0
LINE
8
right_outsideCutPath
10
8.541
20
14.18675
11
8.069
21
14.18675
0
LINE
8
right_outsideCutPath
10
8.069
20
14.18675
11
8.069
21
13.09525
0
LINE
8
right_outsideCutPath
10
8.069
20
13.09525
11
8.541
21
13.09525
0
LINE
8
right_outsideCutPath
10
8.541
20
13.09525
11
8.541
21
12.00375
0
LINE
8
right_outsideCutPath
10
8.541
20
12.00375
11
8.069
21
12.00375
0
LINE
8
right_outsideCutPath
10
8.069
20
12.00375
11
8.069
21
10.91225
0
LINE
8
right_outsideCutPath
10
8.069
20
10.91225
11
8.541
21
10.91225
0
LINE
8
right_outsideCutPath
10
8.541
20
10.91225
11
8.541
21
9.82075
0
LINE
8
right_outsideCutPath
10
8.541
20
9.82075
11
8.069
21
9.82075
0
LINE
8
right_outsideCutPath
10
8.069
20
9.82075
11
8.069
21
8.72925
0
LINE
8
right_outsideCutPath
10
8.069
20
8.72925
11
8.541
21
8.72925
0
LINE
8
right_outsideCutPath
10
8.541
20
8.72925
11
8.541
21
7.722
0
LINE
8
right_outsideCutPath
10
8.541
20
7.722
11
9.31225
21
7.722
0
LINE
8
right_outsideCutPath
10
9.31225
20
7.722
11
9.31225
21
8.194
0
LINE
8
right_outsideCutPath
10
9.31225
20
8.194
11
10.40375
21
8.194
0
LINE
8
right_outsideCutPath
10
10.40375
20
8.194
11
10.40375
21
7.722
0
LINE
8
right_outsideCutPath
10
10.40375
20
7.722
11
11.49525
21
7.722
0
LINE
8
right_outsideCutPath
10
11.49525
20
7.722
11
11.49525
21
8.194
0
LINE
8
right_outsideCutPath
10
11.49525
20
8.194
11
12.58675
21
8.194
0
LINE
8
right_outsideCutPath
10
12.58675
20
8.194
11
12.58675
21
7.722
0
LINE
8
right_outsideCutPath
10
12.58675
20
7.722
11
13.67825
21
7.722
0
LINE
8
right_outsideCutPath
10
13.67825
20
7.722
11
13.67825
21
8.194
0
LINE
8
right_outsideCutPath
10
13.67825
20
8.194
11
14.76975
21
8.194
0
LINE
8
right_outsideCutPath
10
14.76975
20
8.194
11
14.76975
21
7.722
0
LINE
8
right_outsideCutPath
10
14.76975
20
7.722
11
15.541
21
7.722
0
LINE
8
right_outsideCutPath
10
15.541
20
7.722
11
15.541
21
8.72925
0
LINE
8
right_outsideCutPath
10
15.541
20
8.72925
11
16.013
21
8.72925
0
LINE
8
right_outsideCutPath
10
16.013
20
8.72925
11
16.013
21
9.82075
0
LINE
8
right_outsideCutPath
10
16.013
20
9.82075
11
15.541
21
9.82075
0
LINE
8
right_outsideCutPath
10
15.541
20
9.82075
11
15.541
21
10.91225
0
LINE
8
right_outsideCutPath
10
15.541
20
10.91225
11
16.013
21
10.91225
0
LINE
8
right_outsideCutPath
10
16.013
20
10.91225
11
16.013
21
12.00375
0
LINE
8
right_outsideCutPath
10
16.013
20
12.00375
11
15.541
21
12.00375
0
LINE
8
right_outsideCutPath
10
15.541
20
12.00375
11
15.541
21
13.09525
0
LINE
8
right_outsideCutPath
10
15.541
20
13.09525
11
16.013
21
13.09525
0
LINE
8
right_outsideCutPath
10
16.013
20
13.09525
11
16.013
21
14.18675
0
LINE
8
right_outsideCutPath
10
16.013
20
14.18675
11
15.541
21
14.18675
0
LINE
8
right_outsideCutPath
10
15.541
20
14.18675
11
15.541
21
15.194
0
LINE
8
right_outsideCutPath
10
15.541
20
15.194
11
8.541
21
15.194
0
LINE
8
right_labelLayer
10
10.9555898
20
11.8753856
11
10.938807
21
11.7630137
0
LINE
8
right_labelLayer
10
10.6162851
20
11.4988668
11
10.6162851
21
11.0698106
0
LINE
8
right_labelLayer
10
10.6162851
20
11.0698106
11
10.495157
21
11.0698106
0
LINE
8
right_labelLayer
10
10.495157
20
11.0698106
11
10.495157
21
11.8695481
0
LINE
8
right_labelLayer
10
10.495157
20
11.8695481
11
10.5951242
21
11.8695481
0
LINE
8
right_labelLayer
10
10.5951242
20
11.8695481
11
10.6089883
21
11.7214215
0
LINE
8
right_labelLayer
10
10.6089883
20
11.7214215
11
10.6148258
21
11.7214215
0
ARC
8
right_labelLayer
10
10.8612462
20
11.3280646
40
0.5560787
50
84.9924988
51
90.1283251
0
ARC
8
right_labelLayer
10
10.8745985
20
11.4776812
40
0.4058675
50
78.4892813
51
85.0266385
0
ARC
8
right_labelLayer
10
10.8227579
20
11.2419045
40
0.5338747
50
77.4453061
51
81.6357207
0
ARC
8
right_labelLayer
10
10.8460204
20
11.4022146
40
0.3718859
50
81.5887949
51
87.1914049
0
ARC
8
right_labelLayer
10
10.8510715
20
11.4898351
40
0.2841242
50
87.3429743
51
89.9651098
0
ARC
8
right_labelLayer
10
10.849902
20
11.5640845
40
0.2098788
50
89.6334906
51
137.0881216
0
ARC
8
right_labelLayer
10
10.901423
20
11.506148
40
0.2871544
50
135.6207107
51
138.8373189
0
ARC
8
right_labelLayer
10
10.8938625
20
11.5135292
40
0.2766048
50
138.9575832
51
174.5422797
0
ARC
8
right_labelLayer
10
10.9839506
20
11.4994332
40
0.3676659
50
173.6908027
51
180.08826
0
ARC
8
right_labelLayer
10
10.9712035
20
11.5206406
40
0.4090453
50
139.4137865
51
150.6033722
0
ARC
8
right_labelLayer
10
10.8978686
20
11.583482
40
0.3124687
50
124.2322225
51
139.4160671
0
ARC
8
right_labelLayer
10
10.8586504
20
11.6426814
40
0.2414642
50
89.6795775
51
124.4406313
0
LINE
8
right_labelLayer
10
11.2263039
20
11.8695481
11
11.2263039
21
11.0698106
0
LINE
8
right_labelLayer
10
11.2263039
20
11.0698106
11
11.1051758
21
11.0698106
0
LINE
8
right_labelLayer
10
11.1051758
20
11.0698106
11
11.1051758
21
11.8695481
0
LINE
8
right_labelLayer
10
11.1051758
20
11.8695481
11
11.2263039
21
11.8695481
0
ARC
8
right_labelLayer
10
11.2291796
20
12.0870957
40
0.134222
50
170.8450234
51
180.3544857
0
ARC
8
right_labelLayer
10
11.178929
20
12.0954984
40
0.0832752
50
155.9671557
51
171.0517993
0
ARC
8
right_labelLayer
10
11.1545956
20
12.1062948
40
0.0566544
50
133.7876488
51
155.9170336
0
ARC
8
right_labelLayer
10
11.1635818
20
12.0963611
40
0.0700452
50
92.6447547
51
133.4713059
0
ARC
8
right_labelLayer
10
11.166417
20
12.0741314
40
0.0923995
50
89.9674293
51
93.7649332
0
ARC
8
right_labelLayer
10
11.1675754
20
12.0951723
40
0.0713672
50
46.3708282
51
90.8878662
0
ARC
8
right_labelLayer
10
11.1746776
20
12.1025045
40
0.0611596
50
17.7254042
51
46.4471939
0
ARC
8
right_labelLayer
10
11.1415439
20
12.0910964
40
0.0961967
50
4.9437146
51
18.1892576
0
ARC
8
right_labelLayer
10
11.0994709
20
12.0865459
40
0.1385083
50
359.8839227
51
5.3192819
0
ARC
8
right_labelLayer
10
11.1126523
20
12.0854153
40
0.1253294
50
349.8343437
51
0.3885805
0
ARC
8
right_labelLayer
10
11.1582776
20
12.076904
40
0.078919
50
332.6329984
51
350.0703355
0
ARC
8
right_labelLayer
10
11.1760427
20
12.0681327
40
0.0591112
50
313.6146489
51
332.2678105
0
ARC
8
right_labelLayer
10
11.1674822
20
12.0759267
40
0.070664
50
269.178875
51
314.280692
0
ARC
8
right_labelLayer
10
11.1656661
20
12.0822069
40
0.0769411
50
250.5000411
51
270.598289
0
ARC
8
right_labelLayer
10
11.1633381
20
12.0735013
40
0.0679613
50
225.1300559
51
249.9001639
0
ARC
8
right_labelLayer
10
11.1596925
20
12.0694742
40
0.0625359
50
197.79345
51
224.8942503
0
ARC
8
right_labelLayer
10
11.193819
20
12.0811687
40
0.0986061
50
184.9930904
51
198.2039269
0
ARC
8
right_labelLayer
10
11.2380217
20
12.0859691
40
0.1430618
50
179.8813681
51
185.3675499
0
LINE
8
right_labelLayer
10
11.861132
20
11.8695481
11
12.1376836
21
11.8695481
0
LINE
8
right_labelLayer
10
12.1376836
20
11.8695481
11
12.1376836
21
11.7929309
0
LINE
8
right_labelLayer
10
12.1376836
20
11.7929309
11
11.989557
21
11.7754184
0
LINE
8
right_labelLayer
10
11.7166539
20
11.1967762
11
11.8582133
21
11.1967762
0
LINE
8
right_labelLayer
10
11.8195398
20
11.0880528
11
11.674332
21
11.0880528
0
ARC
8
right_labelLayer
10
11.8351974
20
11.6532592
40
0.1968496
50
29.4586644
51
38.3578674
0
ARC
8
right_labelLayer
10
11.7547591
20
11.6073408
40
0.2894708
50
23.1846032
51
29.5422809
0
ARC
8
right_labelLayer
10
11.6781218
20
11.5733543
40
0.3733007
50
21.249889
51
23.3488496
0
ARC
8
right_labelLayer
10
11.808467
20
11.6251883
40
0.2330339
50
6.8506138
51
20.9873099
0
ARC
8
right_labelLayer
10
11.7428536
20
11.6162903
40
0.2992418
50
359.8710584
51
7.0436278
0
ARC
8
right_labelLayer
10
11.7644293
20
11.6127296
40
0.2776802
50
342.5649608
51
0.5957669
0
ARC
8
right_labelLayer
10
11.8156416
20
11.5985878
40
0.2245911
50
310.609793
51
342.0923906
0
ARC
8
right_labelLayer
10
11.7869237
20
11.6319927
40
0.2686435
50
284.931506
51
310.6221755
0
ARC
8
right_labelLayer
10
11.7509873
20
11.757913
40
0.3995781
50
272.5333599
51
285.2581291
0
ARC
8
right_labelLayer
10
11.7417498
20
11.8840208
40
0.5259837
50
269.9687844
51
272.9314382
0
ARC
8
right_labelLayer
10
11.740601
20
11.7473202
40
0.389284
50
263.4833945
51
270.1269027
0
ARC
8
right_labelLayer
10
11.7342727
20
11.6871772
40
0.3288121
50
259.4965586
51
263.3896095
0
ARC
8
right_labelLayer
10
11.7734932
20
11.1725159
40
0.2155253
50
117.3929808
51
128.4099002
0
ARC
8
right_labelLayer
10
11.718017
20
11.2413371
40
0.1271334
50
128.0886017
51
147.1398334
0
ARC
8
right_labelLayer
10
11.6881207
20
11.261401
40
0.0911364
50
147.537245
51
180.259163
0
ARC
8
right_labelLayer
10
11.6597633
20
11.2602134
40
0.062783
50
179.2923898
51
198.3574324
0
ARC
8
right_labelLayer
10
11.6480053
20
11.2571234
40
0.050656
50
199.2288718
51
239.569008
0
ARC
8
right_labelLayer
10
11.65753
20
11.2702265
40
0.0667967
50
238.2171594
51
239.8532759
0
ARC
8
right_labelLayer
10
11.6655268
20
11.2865841
40
0.084968
50
240.7298735
51
254.5023689
0
ARC
8
right_labelLayer
10
11.6887141
20
11.3664842
40
0.1681614
50
254.1633107
51
262.2125873
0
ARC
8
right_labelLayer
10
11.7070855
20
11.4948115
40
0.2977956
50
262.0560004
51
267.2085321
0
ARC
8
right_labelLayer
10
11.7159598
20
11.6576127
40
0.4608369
50
267.0922637
51
270.086299
0
ARC
8
right_labelLayer
10
11.8608623
20
10.7009531
40
0.4958302
50
81.5745907
51
90.3061106
0
ARC
8
right_labelLayer
10
11.8880584
20
10.8783285
40
0.3163854
50
68.367272
51
81.7399811
0
ARC
8
right_labelLayer
10
11.9235814
20
10.9691141
40
0.2188988
50
52.1878234
51
68.2500847
0
ARC
8
right_labelLayer
10
11.9484362
20
11.0026038
40
0.1772056
50
8.6201833
51
51.8982013
0
ARC
8
right_labelLayer
10
11.861326
20
10.9841713
40
0.2661446
50
359.7430614
51
9.7328016
0
ARC
8
right_labelLayer
10
11.8652201
20
10.9796819
40
0.2622685
50
340.5269967
51
0.7200357
0
ARC
8
right_labelLayer
10
11.9037571
20
10.9700866
40
0.2227697
50
302.9902767
51
339.5495142
0
ARC
8
right_labelLayer
10
11.8633807
20
11.0213871
40
0.2878445
50
303.1856574
51
304.1713814
0
ARC
8
right_labelLayer
10
11.8256056
20
11.0867649
40
0.3632598
50
286.2543578
51
302.5278065
0
ARC
8
right_labelLayer
10
11.7570046
20
11.3130473
40
0.5997043
50
276.4939687
51
286.495308
0
ARC
8
right_labelLayer
10
11.7142002
20
11.6708842
40
0.9600885
50
269.7545142
51
276.6168393
0
ARC
8
right_labelLayer
10
11.7068898
20
11.3894307
40
0.6786339
50
262.5633158
51
270.269905
0
ARC
8
right_labelLayer
10
11.6736486
20
11.1430676
40
0.4300421
50
251.2099754
51
262.706504
0
ARC
8
right_labelLayer
10
11.6257413
20
11.0024589
40
0.2814962
50
235.9667551
51
251.2229788
0
ARC
8
right_labelLayer
10
11.5749634
20
10.9300195
40
0.1930518
50
208.9036377
51
236.4231887
0
ARC
8
right_labelLayer
10
11.579627
20
10.9280656
40
0.19623
50
182.2080238
51
207.7459789
0
ARC
8
right_labelLayer
10
11.6391148
20
10.9339962
40
0.2559281
50
179.9792833
51
183.0216573
0
ARC
8
right_labelLayer
10
11.568369
20
10.9373381
40
0.1852108
50
138.3916248
51
181.0052682
0
ARC
8
right_labelLayer
10
11.5879286
20
10.9197588
40
0.2115089
50
113.812202
51
138.3494225
0
ARC
8
right_labelLayer
10
11.6250305
20
10.8396385
40
0.2997927
50
102.2873008
51
114.117176
0
ARC
8
right_labelLayer
10
11.6133707
20
11.2469578
40
0.1257164
50
216.5862767
51
245.4967161
0
ARC
8
right_labelLayer
10
11.6317438
20
11.2625021
40
0.149742
50
215.4676849
51
217.1719297
0
ARC
8
right_labelLayer
10
11.6013902
20
11.2405737
40
0.1122972
50
182.1767853
51
215.3416735
0
ARC
8
right_labelLayer
10
11.6280697
20
11.2434328
40
0.1390781
50
179.9821322
51
182.9363633
0
ARC
8
right_labelLayer
10
11.6274983
20
11.2446477
40
0.1385119
50
161.7221892
51
180.4846096
0
ARC
8
right_labelLayer
10
11.6122721
20
11.248803
40
0.1227536
50
144.4960052
51
161.3349073
0
ARC
8
right_labelLayer
10
11.6528709
20
11.2185466
40
0.1733791
50
132.7259845
51
144.1480734
0
ARC
8
right_labelLayer
10
11.7179169
20
11.1490884
40
0.2685375
50
125.220811
51
132.8660216
0
ARC
8
right_labelLayer
10
11.7834166
20
11.0581304
40
0.3806214
50
121.2360299
51
125.3790122
0
ARC
8
right_labelLayer
10
11.667388
20
11.5797239
40
0.2123474
50
215.1640863
51
247.4747817
0
ARC
8
right_labelLayer
10
11.7071225
20
11.6117799
40
0.2633133
50
212.4723401
51
215.8869775
0
ARC
8
right_labelLayer
10
11.6966017
20
11.6042561
40
0.2503989
50
183.0160763
51
212.3124154
0
ARC
8
right_labelLayer
10
11.7515419
20
11.6103776
40
0.3056019
50
179.9753645
51
183.6202183
0
ARC
8
right_labelLayer
10
11.7958774
20
11.6134656
40
0.3499501
50
166.8193415
51
180.4840746
0
ARC
8
right_labelLayer
10
11.6797923
20
11.6427758
40
0.2302491
50
132.3288076
51
167.3339567
0
ARC
8
right_labelLayer
10
11.6953238
20
11.6204502
40
0.2572376
50
106.2189417
51
131.5377641
0
ARC
8
right_labelLayer
10
11.7346218
20
11.4932089
40
0.3903972
50
93.6329418
51
106.5410109
0
ARC
8
right_labelLayer
10
11.7474491
20
11.3491871
40
0.5349549
50
89.9377342
51
94.0266196
0
ARC
8
right_labelLayer
10
11.7495292
20
11.4198497
40
0.4642946
50
82.5852777
51
90.1849504
0
ARC
8
right_labelLayer
10
11.763717
20
11.529619
40
0.3536122
50
74.0090524
51
82.5696304
0
ARC
8
right_labelLayer
10
11.621578
20
10.9338936
40
0.1216526
50
179.220763
51
200.9356464
0
ARC
8
right_labelLayer
10
11.607112
20
10.9305442
40
0.1069643
50
202.0288073
51
236.1457079
0
ARC
8
right_labelLayer
10
11.6289232
20
10.9582413
40
0.1421415
50
235.0638908
51
238.5041867
0
ARC
8
right_labelLayer
10
11.654265
20
11.0035087
40
0.1939903
50
239.1069842
51
254.4861029
0
ARC
8
right_labelLayer
10
11.6880579
20
11.120023
40
0.3153013
50
254.232185
51
263.4936842
0
ARC
8
right_labelLayer
10
11.709285
20
11.2998119
40
0.496338
50
263.4107916
51
270.1459769
0
ARC
8
right_labelLayer
10
11.7112967
20
11.216935
40
0.4134602
50
269.8964661
51
270.0345559
0
ARC
8
right_labelLayer
10
11.714451
20
11.6177246
40
0.8142551
50
269.7955925
51
275.3991691
0
ARC
8
right_labelLayer
10
11.7449212
20
11.3049111
40
0.4999632
50
275.2958929
51
283.3514162
0
ARC
8
right_labelLayer
10
11.7945761
20
11.100382
40
0.2894976
50
283.1371973
51
295.8573458
0
ARC
8
right_labelLayer
10
11.831379
20
11.0200437
40
0.2011609
50
296.4041631
51
301.8008311
0
ARC
8
right_labelLayer
10
11.8457911
20
11.0001807
40
0.1766938
50
301.2231656
51
318.6236962
0
ARC
8
right_labelLayer
10
11.8783273
20
10.9701258
40
0.1324169
50
319.0764084
51
1.1408256
0
ARC
8
right_labelLayer
10
11.8468268
20
10.9740595
40
0.1638963
50
359.5464795
51
10.9899238
0
ARC
8
right_labelLayer
10
11.9101421
20
10.9869359
40
0.099289
50
10.6609663
51
30.9361927
0
ARC
8
right_labelLayer
10
11.9302146
20
10.9980762
40
0.0763488
50
31.5091274
51
58.077972
0
ARC
8
right_labelLayer
10
11.9113991
20
10.9643865
40
0.1149072
50
58.9974219
51
73.8580103
0
ARC
8
right_labelLayer
10
11.8733805
20
10.8399189
40
0.2450451
50
73.410137
51
81.5908587
0
ARC
8
right_labelLayer
10
11.8411619
20
10.6314372
40
0.4559992
50
81.4170033
51
86.5754223
0
ARC
8
right_labelLayer
10
11.821419
20
10.317332
40
0.7707233
50
86.5051969
51
90.1397018
0
ARC
8
right_labelLayer
10
11.6725996
20
10.8096205
40
0.2784376
50
89.64352
51
100.0209405
0
ARC
8
right_labelLayer
10
11.655099
20
10.9048203
40
0.1816462
50
99.8101996
51
116.8228764
0
ARC
8
right_labelLayer
10
11.6380568
20
10.9407625
40
0.1418847
50
117.2306636
51
130.5016935
0
ARC
8
right_labelLayer
10
11.6292984
20
10.9520201
40
0.1276377
50
130.7942327
51
169.0414269
0
ARC
8
right_labelLayer
10
11.6937529
20
10.9368414
40
0.1938203
50
168.2582601
51
180.3823142
0
ARC
8
right_labelLayer
10
11.8020361
20
11.6116194
40
0.2364345
50
179.5617597
51
191.6531371
0
ARC
8
right_labelLayer
10
11.7198352
20
11.5938589
40
0.1523426
50
191.3556601
51
213.3659339
0
ARC
8
right_labelLayer
10
11.7001004
20
11.5824668
40
0.129602
50
213.9580901
51
227.7965809
0
ARC
8
right_labelLayer
10
11.7172676
20
11.6032908
40
0.1565653
50
228.2620631
51
254.7341107
0
ARC
8
right_labelLayer
10
11.7392105
20
11.6785114
40
0.2349131
50
254.4016306
51
267.434962
0
ARC
8
right_labelLayer
10
11.7449396
20
11.7554208
40
0.3120103
50
267.0160204
51
270.0316034
0
ARC
8
right_labelLayer
10
11.7486785
20
11.707268
40
0.2638815
50
269.2255234
51
284.3772888
0
ARC
8
right_labelLayer
10
11.7846446
20
11.5819611
40
0.1336203
50
282.7797155
51
346.4828188
0
ARC
8
right_labelLayer
10
11.6771085
20
11.6124208
40
0.2453381
50
345.4363314
51
0.746419
0
ARC
8
right_labelLayer
10
11.661992
20
11.6193408
40
0.2604604
50
359.1807897
51
15.0429849
0
ARC
8
right_labelLayer
10
11.7800145
20
11.6537681
40
0.1375718
50
13.9535831
51
77.6674406
0
ARC
8
right_labelLayer
10
11.7461548
20
11.5324333
40
0.2634362
50
76.1093439
51
90.7029934
0
ARC
8
right_labelLayer
10
11.7410868
20
11.5416836
40
0.2541727
50
89.5861548
51
101.3330868
0
ARC
8
right_labelLayer
10
11.7229231
20
11.6283247
40
0.1656534
50
101.0621081
51
121.9738299
0
ARC
8
right_labelLayer
10
11.7101498
20
11.6512989
40
0.1394071
50
122.5205026
51
134.9972275
0
ARC
8
right_labelLayer
10
11.715412
20
11.6481411
40
0.1453685
50
135.5838437
51
163.0017799
0
ARC
8
right_labelLayer
10
11.7921752
20
11.62298
40
0.2261397
50
162.5911351
51
175.7345377
0
ARC
8
right_labelLayer
10
11.8842748
20
11.613906
40
0.3186668
50
175.3392103
51
180.0859835
0
LINE
8
right_labelLayer
10
12.970257
20
11.0698106
11
12.8491289
21
11.0698106
0
LINE
8
right_labelLayer
10
12.8491289
20
11.0698106
11
12.8491289
21
11.587159
0
LINE
8
right_labelLayer
10
12.4229914
20
11.4879215
11
12.4229914
21
11.0698106
0
LINE
8
right_labelLayer
10
12.4229914
20
11.0698106
11
12.3018633
21
11.0698106
0
LINE
8
right_labelLayer
10
12.3018633
20
11.0698106
11
12.3018633
21
12.2052043
0
LINE
8
right_labelLayer
10
12.3018633
20
12.2052043
11
12.4229914
21
12.2052043
0
LINE
8
right_labelLayer
10
12.4229914
20
12.2052043
11
12.4229914
21
11.8615215
0
LINE
8
right_labelLayer
10
12.4171539
20
11.7586356
11
12.4244508
21
11.7586356
0
LINE
8
right_labelLayer
10
12.970257
20
11.5915372
11
12.970257
21
11.0698106
0
ARC
8
right_labelLayer
10
12.5067238
20
11.5891215
40
0.3424107
50
359.6716159
51
8.6876132
0
ARC
8
right_labelLayer
10
12.6336368
20
11.609248
40
0.213915
50
8.4932296
51
22.6579658
0
ARC
8
right_labelLayer
10
12.6981166
20
11.6360442
40
0.1440892
50
22.7022395
51
42.3422038
0
ARC
8
right_labelLayer
10
12.7053604
20
11.6393015
40
0.1365634
50
43.3792374
51
71.5384801
0
ARC
8
right_labelLayer
10
12.6782566
20
11.5635598
40
0.2169969
50
71.0832757
51
84.3686743
0
ARC
8
right_labelLayer
10
12.6660943
20
11.4601371
40
0.3211199
50
84.0198427
51
90.1510745
0
ARC
8
right_labelLayer
10
12.6626361
20
11.414718
40
0.3665472
50
89.5917803
51
100.3594724
0
ARC
8
right_labelLayer
10
12.6366819
20
11.5511128
40
0.2277107
50
100.1068113
51
118.0848294
0
ARC
8
right_labelLayer
10
12.6102839
20
11.6029121
40
0.1695867
50
118.4552228
51
139.670684
0
ARC
8
right_labelLayer
10
12.6367866
20
11.5847971
40
0.2015422
50
140.6208944
51
160.5049029
0
ARC
8
right_labelLayer
10
12.7764751
20
11.5330846
40
0.3504867
50
160.1566687
51
171.5315059
0
ARC
8
right_labelLayer
10
13.0025294
20
11.4972696
40
0.5793547
50
171.3204171
51
178.3406872
0
ARC
8
right_labelLayer
10
13.2050019
20
11.488229
40
0.7820106
50
178.1081384
51
180.022524
0
ARC
8
right_labelLayer
10
11.3334579
20
11.8602178
40
1.0895342
50
357.867472
51
0.0685583
0
ARC
8
right_labelLayer
10
11.7035043
20
11.8460982
40
0.7192187
50
354.9831269
51
357.8945589
0
ARC
8
right_labelLayer
10
11.9478816
20
11.8248239
40
0.4739171
50
351.9717045
51
354.9616415
0
ARC
8
right_labelLayer
10
12.6296228
20
11.6302927
40
0.2420072
50
119.8317208
51
147.9724632
0
ARC
8
right_labelLayer
10
12.6588931
20
11.585334
40
0.2955845
50
116.6651115
51
120.4184457
0
ARC
8
right_labelLayer
10
12.6643967
20
11.5709059
40
0.310952
50
96.665191
51
116.3782698
0
ARC
8
right_labelLayer
10
12.6761882
20
11.4895476
40
0.3931356
50
89.8929576
51
96.9958371
0
ARC
8
right_labelLayer
10
12.6799575
20
11.3912567
40
0.4914352
50
80.6864409
51
90.3538365
0
ARC
8
right_labelLayer
10
12.710555
20
11.5712369
40
0.3088774
50
65.6024171
51
80.8842903
0
ARC
8
right_labelLayer
10
12.7473008
20
11.6539993
40
0.2183283
50
46.7400161
51
65.412975
0
ARC
8
right_labelLayer
10
12.7497994
20
11.6618856
40
0.2109033
50
19.2202801
51
45.766057
0
ARC
8
right_labelLayer
10
12.6281856
20
11.6168022
40
0.3405894
50
6.4734963
51
19.6467577
0
ARC
8
right_labelLayer
10
12.4464869
20
11.5934157
40
0.5237735
50
359.7945088
51
6.774542
0
LINE
8
right_labelLayer
10
13.5868429
20
11.1697778
11
13.5868429
21
11.0771075
0
LINE
8
right_labelLayer
10
13.2278367
20
11.2996622
11
13.2278367
21
11.7754184
0
LINE
8
right_labelLayer
10
13.2278367
20
11.7754184
11
13.1132758
21
11.7754184
0
LINE
8
right_labelLayer
10
13.1132758
20
11.7754184
11
13.1132758
21
11.8337934
0
LINE
8
right_labelLayer
10
13.1132758
20
11.8337934
11
13.2278367
21
11.8841418
0
LINE
8
right_labelLayer
10
13.2278367
20
11.8841418
11
13.2789148
21
12.0548887
0
LINE
8
right_labelLayer
10
13.2789148
20
12.0548887
11
13.3489648
21
12.0548887
0
LINE
8
right_labelLayer
10
13.3489648
20
12.0548887
11
13.3489648
21
11.8695481
0
LINE
8
right_labelLayer
10
13.3489648
20
11.8695481
11
13.5810054
21
11.8695481
0
LINE
8
right_labelLayer
10
13.5810054
20
11.8695481
11
13.5810054
21
11.7754184
0
LINE
8
right_labelLayer
10
13.5810054
20
11.7754184
11
13.3489648
21
11.7754184
0
LINE
8
right_labelLayer
10
13.3489648
20
11.7754184
11
13.3489648
21
11.30477
0
ARC
8
right_labelLayer
10
13.4782192
20
11.5530052
40
0.397822
50
269.8805508
51
278.3025903
0
ARC
8
right_labelLayer
10
13.4815765
20
11.5248199
40
0.3694481
50
278.4185774
51
279.0066534
0
ARC
8
right_labelLayer
10
13.4373454
20
11.8073818
40
0.6554506
50
278.9586524
51
280.5096326
0
ARC
8
right_labelLayer
10
13.4798337
20
11.5793151
40
0.4234599
50
280.4858205
51
282.625961
0
ARC
8
right_labelLayer
10
13.5172703
20
11.4129896
40
0.2529735
50
282.5863303
51
285.5807531
0
ARC
8
right_labelLayer
10
13.5364147
20
11.34271
40
0.1801349
50
285.7194163
51
286.2570532
0
ARC
8
right_labelLayer
10
13.5359251
20
11.1847997
40
0.1191228
50
287.98801
51
295.3052044
0
ARC
8
right_labelLayer
10
13.5071668
20
11.2718113
40
0.2107631
50
283.3074358
51
288.1190171
0
ARC
8
right_labelLayer
10
13.4768527
20
11.3982509
40
0.3407855
50
280.0062705
51
283.3741414
0
ARC
8
right_labelLayer
10
13.4561587
20
11.5106857
40
0.4551065
50
279.1886595
51
280.112393
0
ARC
8
right_labelLayer
10
13.4440478
20
11.5795181
40
0.5249905
50
275.5258807
51
279.2938638
0
ARC
8
right_labelLayer
10
13.4580905
20
11.4328434
40
0.3776452
50
270.8938006
51
275.5481389
0
ARC
8
right_labelLayer
10
13.4598754
20
11.362865
40
0.3076482
50
270.0003502
51
270.7647075
0
ARC
8
right_labelLayer
10
13.4549888
20
11.3715463
40
0.3163672
50
253.7848129
51
270.885369
0
ARC
8
right_labelLayer
10
13.4175083
20
11.2437226
40
0.1831622
50
190.3817783
51
253.8772038
0
ARC
8
right_labelLayer
10
13.6085446
20
11.2953767
40
0.3807321
50
179.3550768
51
192.8479238
0
ARC
8
right_labelLayer
10
13.5928658
20
11.3032434
40
0.2439058
50
179.641387
51
189.7505752
0
ARC
8
right_labelLayer
10
13.5067706
20
11.2878878
40
0.1564545
50
189.548155
51
205.7871009
0
ARC
8
right_labelLayer
10
13.4713834
20
11.2715715
40
0.1174953
50
206.1298857
51
221.4083554
0
ARC
8
right_labelLayer
10
13.4674132
20
11.2685587
40
0.1125256
50
221.5949033
51
262.350362
0
ARC
8
right_labelLayer
10
13.476848
20
11.3170659
40
0.1618828
50
261.3260899
51
270.1917592
0
LINE
8
bottom_outsideCutPath
10
16.61
20
7.597
11
16.61
21
6.82575
0
LINE
8
bottom_outsideCutPath
10
16.61
20
6.82575
11
16.138
21
6.82575
0
LINE
8
bottom_outsideCutPath
10
16.138
20
6.82575
11
16.138
21
5.73425
0
LINE
8
bottom_outsideCutPath
10
16.138
20
5.73425
11
16.61
21
5.73425
0
LINE
8
bottom_outsideCutPath
10
16.61
20
5.73425
11
16.61
21
4.64275
0
LINE
8
bottom_outsideCutPath
10
16.61
20
4.64275
11
16.138
21
4.64275
0
LINE
8
bottom_outsideCutPath
10
16.138
20
4.64275
11
16.138
21
3.55125
0
LINE
8
bottom_outsideCutPath
10
16.138
20
3.55125
11
16.61
21
3.55125
0
LINE
8
bottom_outsideCutPath
10
16.61
20
3.55125
11
16.61
21
2.45975
0
LINE
8
bottom_outsideCutPath
10
16.61
20
2.45975
11
16.138
21
2.45975
0
LINE
8
bottom_outsideCutPath
10
16.138
20
2.45975
11
16.138
21
1.36825
0
LINE
8
bottom_outsideCutPath
10
16.138
20
1.36825
11
16.61
21
1.36825
0
LINE
8
bottom_outsideCutPath
10
16.61
20
1.36825
11
16.61
21
0.597
0
LINE
8
bottom_outsideCutPath
10
16.61
20
0.597
11
17.38125
21
0.597
0
LINE
8
bottom_outsideCutPath
10
17.38125
20
0.597
11
17.38125
21
0.125
0
LINE
8
bottom_outsideCutPath
10
17.38125
20
0.125
11
18.47275
21
0.125
0
LINE
8
bottom_outsideCutPath
10
18.47275
20
0.125
11
18.47275
21
0.597
0
LINE
8
bottom_outsideCutPath
10
18.47275
20
0.597
11
19.56425
21
0.597
0
LINE
8
bottom_outsideCutPath
10
19.56425
20
0.597
11
19.56425
21
0.125
0
LINE
8
bottom_outsideCutPath
10
19.56425
20
0.125
11
20.65575
21
0.125
0
LINE
8
bottom_outsideCutPath
10
20.65575
20
0.125
11
20.65575
21
0.597
0
LINE
8
bottom_outsideCutPath
10
20.65575
20
0.597
11
21.74725
21
0.597
0
LINE
8
bottom_outsideCutPath
10
21.74725
20
0.597
11
21.74725
21
0.125
0
LINE
8
bottom_outsideCutPath
10
21.74725
20
0.125
11
22.83875
21
0.125
0
LINE
8
bottom_outsideCutPath
10
22.83875
20
0.125
11
22.83875
21
0.597
0
LINE
8
bottom_outsideCutPath
10
22.83875
20
0.597
11
23.61
21
0.597
0
LINE
8
bottom_outsideCutPath
10
23.61
20
0.597
11
23.61
21
1.36825
0
LINE
8
bottom_outsideCutPath
10
23.61
20
1.36825
11
24.082
21
1.36825
0
LINE
8
bottom_outsideCutPath
10
24.082
20
1.36825
11
24.082
21
2.45975
0
LINE
8
bottom_outsideCutPath
10
24.082
20
2.45975
11
23.61
21
2.45975
0
LINE
8
bottom_outsideCutPath
10
23.61
20
2.45975
11
23.61
21
3.55125
0
LINE
8
bottom_outsideCutPath
10
23.61
20
3.55125
11
24.082
21
3.55125
0
LINE
8
bottom_outsideCutPath
10
24.082
20
3.55125
11
24.082
21
4.64275
0
LINE
8
bottom_outsideCutPath
10
24.082
20
4.64275
11
23.61
21
4.64275
0
LINE
8
bottom_outsideCutPath
10
23.61
20
4.64275
11
23.61
21
5.73425
0
LINE
8
bottom_outsideCutPath
10
23.61
20
5.73425
11
24.082
21
5.73425
0
LINE
8
bottom_outsideCutPath
10
24.082
20
5.73425
11
24.082
21
6.82575
0
LINE
8
bottom_outsideCutPath
10
24.082
20
6.82575
11
23.61
21
6.82575
0
LINE
8
bottom_outsideCutPath
10
23.61
20
6.82575
11
23.61
21
7.597
0
LINE
8
bottom_outsideCutPath
10
23.61
20
7.597
11
22.83875
21
7.597
0
LINE
8
bottom_outsideCutPath
10
22.83875
20
7.597
11
22.83875
21
8.069
0
LINE
8
bottom_outsideCutPath
10
22.83875
20
8.069
11
21.74725
21
8.069
0
LINE
8
bottom_outsideCutPath
10
21.74725
20
8.069
11
21.74725
21
7.597
0
LINE
8
bottom_outsideCutPath
10
21.74725
20
7.597
11
20.65575
21
7.597
0
LINE
8
bottom_outsideCutPath
10
20.65575
20
7.597
11
20.65575
21
8.069
0
LINE
8
bottom_outsideCutPath
10
20.65575
20
8.069
11
19.56425
21
8.069
0
LINE
8
bottom_outsideCutPath
10
19.56425
20
8.069
11
19.56425
21
7.597
0
LINE
8
bottom_outsideCutPath
10
19.56425
20
7.597
11
18.47275
21
7.597
0
LINE
8
bottom_outsideCutPath
10
18.47275
20
7.597
11
18.47275
21
8.069
0
LINE
8
bottom_outsideCutPath
10
18.47275
20
8.069
11
17.38125
21
8.069
0
LINE
8
bottom_outsideCutPath
10
17.38125
20
8.069
11
17.38125
21
7.597
0
LINE
8
bottom_outsideCutPath
10
17.38125
20
7.597
11
16.61
21
7.597
0
LINE
8
bottom_labelLayer
10
17.6251689
20
3.6106052
11
17.6158595
21
3.6106052
0
LINE
8
bottom_labelLayer
10
17.6158595
20
3.6106052
11
17.5887072
21
3.5012201
0
LINE
8
bottom_labelLayer
10
17.5887072
20
3.5012201
11
17.4963892
21
3.5012201
0
LINE
8
bottom_labelLayer
10
17.4963892
20
3.5012201
11
17.4963892
21
4.7083357
0
LINE
8
bottom_labelLayer
10
17.4963892
20
4.7083357
11
17.6251689
21
4.7083357
0
LINE
8
bottom_labelLayer
10
17.6251689
20
4.7083357
11
17.6251689
21
4.4150904
0
LINE
8
bottom_labelLayer
10
17.6189627
20
4.2382123
11
17.6251689
21
4.2382123
0
ARC
8
bottom_labelLayer
10
17.8959008
20
3.9718639
40
0.3935954
50
74.2393236
51
90.5623703
0
ARC
8
bottom_labelLayer
10
17.9219271
20
4.0673415
40
0.2946395
50
38.5630844
51
74.0670672
0
ARC
8
bottom_labelLayer
10
17.8549502
20
4.015263
40
0.3794761
50
16.4709173
51
38.4075023
0
ARC
8
bottom_labelLayer
10
17.6620032
20
3.9547609
40
0.5816688
50
5.1337621
51
16.7972837
0
ARC
8
bottom_labelLayer
10
17.4183929
20
3.928885
40
0.826627
50
359.8779355
51
5.4091806
0
ARC
8
bottom_labelLayer
10
17.4899835
20
3.9226681
40
0.7550478
50
350.6561537
51
0.3381295
0
ARC
8
bottom_labelLayer
10
17.7531909
20
3.8778986
40
0.4880661
50
335.8305888
51
350.8253719
0
ARC
8
bottom_labelLayer
10
17.8689794
20
3.8279236
40
0.3619709
50
321.3161914
51
335.543472
0
ARC
8
bottom_labelLayer
10
17.9132506
20
3.7918498
40
0.304866
50
274.0639743
51
321.4080965
0
ARC
8
bottom_labelLayer
10
17.8926298
20
3.9224366
40
0.4367326
50
269.9223204
51
275.5484747
0
ARC
8
bottom_labelLayer
10
17.8898667
20
3.8763157
40
0.3906173
50
255.775463
51
270.3184437
0
ARC
8
bottom_labelLayer
10
17.8787187
20
3.826788
40
0.3398717
50
245.9800632
51
255.5455247
0
ARC
8
bottom_labelLayer
10
17.857128
20
3.7765802
40
0.2852241
50
215.5850649
51
245.8361818
0
ARC
8
bottom_labelLayer
10
14.9400202
20
4.4128205
40
2.6851497
50
358.1124573
51
0.0484346
0
ARC
8
bottom_labelLayer
10
15.6872254
20
4.387747
40
1.9375239
50
355.7240039
51
358.125722
0
ARC
8
bottom_labelLayer
10
16.005102
20
4.3660225
40
1.6189137
50
355.4718928
51
355.6519065
0
ARC
8
bottom_labelLayer
10
17.8653376
20
4.0707362
40
0.2927955
50
95.1835442
51
145.110902
0
ARC
8
bottom_labelLayer
10
17.8910746
20
3.9255909
40
0.4398506
50
89.8745526
51
96.814436
0
ARC
8
bottom_labelLayer
10
17.8707219
20
3.8957482
40
0.3618686
50
89.5729739
51
100.7326707
0
ARC
8
bottom_labelLayer
10
17.843934
20
4.0310831
40
0.2239154
50
100.4470137
51
119.67005
0
ARC
8
bottom_labelLayer
10
17.8190928
20
4.0775281
40
0.1712691
50
120.1404795
51
142.4249236
0
ARC
8
bottom_labelLayer
10
17.8601892
20
4.0503414
40
0.2204469
50
143.3382005
51
161.2560683
0
ARC
8
bottom_labelLayer
10
18.032071
20
3.9893195
40
0.4028297
50
160.8929123
51
171.2333514
0
ARC
8
bottom_labelLayer
10
18.3189698
20
3.9430349
40
0.693434
50
171.0666612
51
177.8455652
0
ARC
8
bottom_labelLayer
10
18.6174361
20
3.927856
40
0.9922675
50
177.6176033
51
180.0422687
0
ARC
8
bottom_labelLayer
10
18.4766268
20
3.9237973
40
0.8514644
50
179.7761416
51
185.707514
0
ARC
8
bottom_labelLayer
10
18.1409278
20
3.8892077
40
0.5139906
50
185.5923951
51
194.2050974
0
ARC
8
bottom_labelLayer
10
17.9258796
20
3.8333939
40
0.2918245
50
193.9428314
51
208.0218241
0
ARC
8
bottom_labelLayer
10
17.838873
20
3.7891313
40
0.1942311
50
208.5536243
51
217.5604925
0
ARC
8
bottom_labelLayer
10
17.8317836
20
3.7861827
40
0.1868243
50
218.1690479
51
253.804738
0
ARC
8
bottom_labelLayer
10
17.8664347
20
3.8930103
40
0.2990975
50
253.1379834
51
266.8484707
0
ARC
8
bottom_labelLayer
10
17.8761532
20
4.0075839
40
0.4140461
50
266.3772942
51
270.0510398
0
ARC
8
bottom_labelLayer
10
17.8792698
20
3.8502394
40
0.256716
50
269.3867145
51
285.863213
0
ARC
8
bottom_labelLayer
10
17.8983415
20
3.7813133
40
0.1852024
50
286.0163416
51
326.8496662
0
ARC
8
bottom_labelLayer
10
17.8062859
20
3.8422966
40
0.2956238
50
326.7104992
51
343.6661093
0
ARC
8
bottom_labelLayer
10
17.6339551
20
3.8949538
40
0.4758126
50
343.4172499
51
353.6368055
0
ARC
8
bottom_labelLayer
10
17.3737263
20
3.9258336
40
0.737863
50
353.4932904
51
0.2206804
0
ARC
8
bottom_labelLayer
10
17.3507445
20
3.9317552
40
0.7608454
50
359.7680828
51
6.3094931
0
ARC
8
bottom_labelLayer
10
17.6373387
20
3.9646436
40
0.4723744
50
6.1648143
51
16.0395257
0
ARC
8
bottom_labelLayer
10
17.8219557
20
4.0190483
40
0.279915
50
15.7781408
51
32.0149932
0
ARC
8
bottom_labelLayer
10
17.8796237
20
4.0520848
40
0.2135191
50
32.7020072
51
35.5243302
0
ARC
8
bottom_labelLayer
10
17.9005879
20
4.0669854
40
0.1877989
50
35.5408369
51
79.8012121
0
ARC
8
bottom_labelLayer
10
17.8753679
20
3.9597673
40
0.2978458
50
78.6782934
51
90.3749347
0
ARC
8
bottom_labelLayer
10
18.5386964
20
3.9226395
40
0.6652025
50
349.1762367
51
0.3862642
0
ARC
8
bottom_labelLayer
10
18.762655
20
3.8779939
40
0.4368479
50
330.2507063
51
349.4115916
0
ARC
8
bottom_labelLayer
10
18.8315769
20
3.8421714
40
0.3592476
50
318.1440053
51
329.7565779
0
ARC
8
bottom_labelLayer
10
18.8440185
20
3.8322008
40
0.343329
50
278.8958827
51
317.9978953
0
ARC
8
bottom_labelLayer
10
18.8119674
20
3.9857651
40
0.5000652
50
269.7501662
51
279.8032016
0
ARC
8
bottom_labelLayer
10
18.8067681
20
3.8992398
40
0.4135464
50
253.5436439
51
270.4182498
0
ARC
8
bottom_labelLayer
10
18.7930011
20
3.8459879
40
0.3585809
50
238.8114811
51
253.2428543
0
ARC
8
bottom_labelLayer
10
18.7885583
20
3.8370547
40
0.3486391
50
207.7946351
51
238.6758335
0
ARC
8
bottom_labelLayer
10
18.8521147
20
3.8760011
40
0.423051
50
205.6553981
51
208.446954
0
ARC
8
bottom_labelLayer
10
18.9014181
20
3.8965617
40
0.4764039
50
188.9103445
51
205.3171166
0
ARC
8
bottom_labelLayer
10
19.0668938
20
3.9245869
40
0.6442267
50
179.7743625
51
189.0932654
0
ARC
8
bottom_labelLayer
10
19.0913173
20
3.9316518
40
0.6686606
50
169.2443059
51
180.3879841
0
ARC
8
bottom_labelLayer
10
18.8642404
20
3.9765368
40
0.4372
50
150.7111345
51
169.4695726
0
ARC
8
bottom_labelLayer
10
18.791749
20
4.0137645
40
0.3557759
50
138.1758217
51
150.2288044
0
ARC
8
bottom_labelLayer
10
18.7796958
20
4.0230142
40
0.3406277
50
99.1759219
51
137.9832468
0
ARC
8
bottom_labelLayer
10
18.8128833
20
3.8668292
40
0.5001682
50
89.7326293
51
100.075957
0
ARC
8
bottom_labelLayer
10
18.8195158
20
3.9342786
40
0.4327347
50
73.5222865
51
90.5691473
0
ARC
8
bottom_labelLayer
10
18.8448932
20
4.0264824
40
0.3371245
50
41.1445838
51
73.2133385
0
ARC
8
bottom_labelLayer
10
18.7964499
20
3.9848462
40
0.4010002
50
13.5015109
51
41.0703569
0
ARC
8
bottom_labelLayer
10
18.6092998
20
3.9358708
40
0.5944254
50
1.1276383
51
13.8800978
0
ARC
8
bottom_labelLayer
10
18.4478411
20
3.9272308
40
0.7560426
50
359.9919066
51
1.5414916
0
ARC
8
bottom_labelLayer
10
19.2082479
20
3.9237772
40
0.6521501
50
179.7059617
51
187.9159237
0
ARC
8
bottom_labelLayer
10
18.9690553
20
3.8894196
40
0.4105063
50
187.7639787
51
200.0976317
0
ARC
8
bottom_labelLayer
10
18.8372899
20
3.8411413
40
0.2701749
50
200.0846401
51
216.9129705
0
ARC
8
bottom_labelLayer
10
18.7891698
20
3.8067816
40
0.2110687
50
217.30083
51
261.7100043
0
ARC
8
bottom_labelLayer
10
18.8115064
20
3.913371
40
0.3198358
50
260.5034365
51
270.2478638
0
ARC
8
bottom_labelLayer
10
18.8157701
20
3.8926516
40
0.2991274
50
269.4483204
51
284.7254536
0
ARC
8
bottom_labelLayer
10
18.8394501
20
3.8048263
40
0.2081684
50
284.566332
51
322.6333679
0
ARC
8
bottom_labelLayer
10
18.7840885
20
3.8448234
40
0.2764489
50
323.0087645
51
342.639058
0
ARC
8
bottom_labelLayer
10
18.6257388
20
3.8965773
40
0.4430327
50
342.3614945
51
353.7538611
0
ARC
8
bottom_labelLayer
10
18.3920798
20
3.9247409
40
0.6783737
50
353.536429
51
0.2012729
0
ARC
8
bottom_labelLayer
10
18.4278999
20
3.9304036
40
0.6425578
50
359.707563
51
7.8972475
0
ARC
8
bottom_labelLayer
10
18.6632212
20
3.9641384
40
0.4048347
50
7.7440409
51
20.0689922
0
ARC
8
bottom_labelLayer
10
18.7943547
20
4.0122589
40
0.265151
50
20.0257815
51
37.4351458
0
ARC
8
bottom_labelLayer
10
18.8378624
20
4.0431321
40
0.2118464
50
37.957717
51
80.4006005
0
ARC
8
bottom_labelLayer
10
18.8131391
20
3.9328196
40
0.324792
50
79.3453462
51
90.3176532
0
ARC
8
bottom_labelLayer
10
18.8085609
20
3.9511394
40
0.30648
50
89.4807348
51
103.880672
0
ARC
8
bottom_labelLayer
10
18.7828075
20
4.0492037
40
0.2051067
50
103.4684498
51
142.311904
0
ARC
8
bottom_labelLayer
10
18.8328702
20
4.0139958
40
0.2662627
50
142.9025375
51
162.3751116
0
ARC
8
bottom_labelLayer
10
18.9906213
20
3.9614244
40
0.4325331
50
162.065253
51
173.1675391
0
ARC
8
bottom_labelLayer
10
19.2366074
20
3.9300503
40
0.6805073
50
173.0086446
51
180.2463854
0
LINE
8
bottom_labelLayer
10
19.8206298
20
3.6075021
11
19.8206298
21
3.5089779
0
LINE
8
bottom_labelLayer
10
19.4389455
20
3.7455912
11
19.4389455
21
4.2514005
0
LINE
8
bottom_labelLayer
10
19.4389455
20
4.2514005
11
19.3171478
21
4.2514005
0
LINE
8
bottom_labelLayer
10
19.3171478
20
4.2514005
11
19.3171478
21
4.313463
0
LINE
8
bottom_labelLayer
10
19.3171478
20
4.313463
11
19.4389455
21
4.3669919
0
LINE
8
bottom_labelLayer
10
19.4389455
20
4.3669919
11
19.4932502
21
4.5485248
0
LINE
8
bottom_labelLayer
10
19.4932502
20
4.5485248
11
19.5677252
21
4.5485248
0
LINE
8
bottom_labelLayer
10
19.5677252
20
4.5485248
11
19.5677252
21
4.3514763
0
LINE
8
bottom_labelLayer
10
19.5677252
20
4.3514763
11
19.8144236
21
4.3514763
0
LINE
8
bottom_labelLayer
10
19.8144236
20
4.3514763
11
19.8144236
21
4.2514005
0
LINE
8
bottom_labelLayer
10
19.8144236
20
4.2514005
11
19.5677252
21
4.2514005
0
LINE
8
bottom_labelLayer
10
19.5677252
20
4.2514005
11
19.5677252
21
3.7510216
0
ARC
8
bottom_labelLayer
10
19.7051458
20
4.0149108
40
0.4229252
50
269.8803506
51
278.3029251
0
ARC
8
bottom_labelLayer
10
19.7089452
20
3.983518
40
0.3913136
50
278.4162276
51
279.0065161
0
ARC
8
bottom_labelLayer
10
19.6617785
20
4.284843
40
0.6963075
50
278.958271
51
280.5104704
0
ARC
8
bottom_labelLayer
10
19.7069927
20
4.0422562
40
0.4495431
50
280.4844578
51
282.6277712
0
ARC
8
bottom_labelLayer
10
19.7466656
20
3.8660655
40
0.2689413
50
282.5862188
51
285.5807785
0
ARC
8
bottom_labelLayer
10
19.7666394
20
3.7925757
40
0.1927878
50
285.7291622
51
286.263246
0
ARC
8
bottom_labelLayer
10
19.7664841
20
3.6234988
40
0.1266759
50
287.9893389
51
295.3049024
0
ARC
8
bottom_labelLayer
10
19.7359544
20
3.7158573
40
0.2239487
50
283.3062967
51
288.1206324
0
ARC
8
bottom_labelLayer
10
19.7037049
20
3.8503406
40
0.3622443
50
280.0060458
51
283.3745529
0
ARC
8
bottom_labelLayer
10
19.682258
20
3.9666472
40
0.4805091
50
279.1846403
51
280.1148063
0
ARC
8
bottom_labelLayer
10
19.6688054
20
4.0431746
40
0.5582037
50
275.5263185
51
279.2939646
0
ARC
8
bottom_labelLayer
10
19.6837476
20
3.8871341
40
0.4014495
50
270.8934209
51
275.5483538
0
ARC
8
bottom_labelLayer
10
19.6856409
20
3.8144119
40
0.3287073
50
270.0005201
51
270.7610978
0
ARC
8
bottom_labelLayer
10
19.6804472
20
3.8220209
40
0.3363566
50
253.7849374
51
270.885249
0
ARC
8
bottom_labelLayer
10
19.6405983
20
3.6861177
40
0.1947321
50
190.3817158
51
253.877235
0
ARC
8
bottom_labelLayer
10
19.8437109
20
3.7410359
40
0.4047912
50
179.3552125
51
192.8477735
0
ARC
8
bottom_labelLayer
10
19.8270268
20
3.7493988
40
0.2593067
50
179.6414189
51
189.7508565
0
ARC
8
bottom_labelLayer
10
19.7354964
20
3.7330716
40
0.1663344
50
189.5478535
51
205.787124
0
ARC
8
bottom_labelLayer
10
19.6978677
20
3.7157191
40
0.1249062
50
206.1288862
51
221.4087542
0
ARC
8
bottom_labelLayer
10
19.6936554
20
3.7125222
40
0.1196329
50
221.5947786
51
262.3505202
0
ARC
8
bottom_labelLayer
10
19.7036867
20
3.7641053
40
0.1721197
50
261.3266176
51
270.1917218
0
LINE
8
bottom_labelLayer
10
20.3815197
20
3.6075021
11
20.3815197
21
3.5089779
0
LINE
8
bottom_labelLayer
10
19.9998353
20
3.7455912
11
19.9998353
21
4.2514005
0
LINE
8
bottom_labelLayer
10
19.9998353
20
4.2514005
11
19.8780377
21
4.2514005
0
LINE
8
bottom_labelLayer
10
19.8780377
20
4.2514005
11
19.8780377
21
4.313463
0
LINE
8
bottom_labelLayer
10
19.8780377
20
4.313463
11
19.9998353
21
4.3669919
0
LINE
8
bottom_labelLayer
10
19.9998353
20
4.3669919
11
20.05414
21
4.5485248
0
LINE
8
bottom_labelLayer
10
20.05414
20
4.5485248
11
20.128615
21
4.5485248
0
LINE
8
bottom_labelLayer
10
20.128615
20
4.5485248
11
20.128615
21
4.3514763
0
LINE
8
bottom_labelLayer
10
20.128615
20
4.3514763
11
20.3753134
21
4.3514763
0
LINE
8
bottom_labelLayer
10
20.3753134
20
4.3514763
11
20.3753134
21
4.2514005
0
LINE
8
bottom_labelLayer
10
20.3753134
20
4.2514005
11
20.128615
21
4.2514005
0
LINE
8
bottom_labelLayer
10
20.128615
20
4.2514005
11
20.128615
21
3.7510216
0
ARC
8
bottom_labelLayer
10
20.2660357
20
4.0149108
40
0.4229252
50
269.8803506
51
278.3029251
0
ARC
8
bottom_labelLayer
10
20.269835
20
3.983518
40
0.3913136
50
278.4162276
51
279.0065161
0
ARC
8
bottom_labelLayer
10
20.2226683
20
4.284843
40
0.6963075
50
278.958271
51
280.5104704
0
ARC
8
bottom_labelLayer
10
20.2678826
20
4.0422562
40
0.4495431
50
280.4844578
51
282.6277712
0
ARC
8
bottom_labelLayer
10
20.3075554
20
3.8660655
40
0.2689413
50
282.5862188
51
285.5807785
0
ARC
8
bottom_labelLayer
10
20.3275292
20
3.7925757
40
0.1927878
50
285.7291622
51
286.263246
0
ARC
8
bottom_labelLayer
10
20.3273739
20
3.6234988
40
0.1266759
50
287.9893389
51
295.3049024
0
ARC
8
bottom_labelLayer
10
20.2968443
20
3.7158573
40
0.2239487
50
283.3062967
51
288.1206324
0
ARC
8
bottom_labelLayer
10
20.2645947
20
3.8503406
40
0.3622443
50
280.0060458
51
283.3745529
0
ARC
8
bottom_labelLayer
10
20.2431479
20
3.9666472
40
0.4805091
50
279.1846403
51
280.1148063
0
ARC
8
bottom_labelLayer
10
20.2296953
20
4.0431746
40
0.5582037
50
275.5263185
51
279.2939646
0
ARC
8
bottom_labelLayer
10
20.2446375
20
3.8871341
40
0.4014495
50
270.8934209
51
275.5483538
0
ARC
8
bottom_labelLayer
10
20.2465308
20
3.8144119
40
0.3287073
50
270.0005201
51
270.7610978
0
ARC
8
bottom_labelLayer
10
20.2413371
20
3.8220209
40
0.3363566
50
253.7849374
51
270.885249
0
ARC
8
bottom_labelLayer
10
20.2014881
20
3.6861177
40
0.1947321
50
190.3817158
51
253.877235
0
ARC
8
bottom_labelLayer
10
20.4046007
20
3.7410359
40
0.4047912
50
179.3552125
51
192.8477735
0
ARC
8
bottom_labelLayer
10
20.3879166
20
3.7493988
40
0.2593067
50
179.6414189
51
189.7508565
0
ARC
8
bottom_labelLayer
10
20.2963862
20
3.7330716
40
0.1663344
50
189.5478535
51
205.787124
0
ARC
8
bottom_labelLayer
10
20.2587575
20
3.7157191
40
0.1249062
50
206.1288862
51
221.4087542
0
ARC
8
bottom_labelLayer
10
20.2545452
20
3.7125222
40
0.1196329
50
221.5947786
51
262.3505202
0
ARC
8
bottom_labelLayer
10
20.2645766
20
3.7641053
40
0.1721197
50
261.3266176
51
270.1917218
0
ARC
8
bottom_labelLayer
10
20.6201175
20
3.9226395
40
0.6652025
50
349.1762367
51
0.3862642
0
ARC
8
bottom_labelLayer
10
20.8440761
20
3.8779939
40
0.4368479
50
330.2507063
51
349.4115916
0
ARC
8
bottom_labelLayer
10
20.912998
20
3.8421714
40
0.3592476
50
318.1440053
51
329.7565779
0
ARC
8
bottom_labelLayer
10
20.9254396
20
3.8322008
40
0.343329
50
278.8958827
51
317.9978953
0
ARC
8
bottom_labelLayer
10
20.8933885
20
3.9857651
40
0.5000652
50
269.7501662
51
279.8032016
0
ARC
8
bottom_labelLayer
10
20.8881892
20
3.8992398
40
0.4135464
50
253.5436439
51
270.4182498
0
ARC
8
bottom_labelLayer
10
20.8744222
20
3.8459879
40
0.3585809
50
238.8114811
51
253.2428543
0
ARC
8
bottom_labelLayer
10
20.8699794
20
3.8370547
40
0.3486391
50
207.7946351
51
238.6758335
0
ARC
8
bottom_labelLayer
10
20.9335358
20
3.8760011
40
0.423051
50
205.6553981
51
208.446954
0
ARC
8
bottom_labelLayer
10
20.9828392
20
3.8965617
40
0.4764039
50
188.9103445
51
205.3171166
0
ARC
8
bottom_labelLayer
10
21.1483149
20
3.9245869
40
0.6442267
50
179.7743625
51
189.0932654
0
ARC
8
bottom_labelLayer
10
21.1727383
20
3.9316518
40
0.6686606
50
169.2443059
51
180.3879841
0
ARC
8
bottom_labelLayer
10
20.9456615
20
3.9765368
40
0.4372
50
150.7111345
51
169.4695726
0
ARC
8
bottom_labelLayer
10
20.8731701
20
4.0137645
40
0.3557759
50
138.1758217
51
150.2288044
0
ARC
8
bottom_labelLayer
10
20.8611169
20
4.0230142
40
0.3406277
50
99.1759219
51
137.9832468
0
ARC
8
bottom_labelLayer
10
20.8943044
20
3.8668292
40
0.5001682
50
89.7326293
51
100.075957
0
ARC
8
bottom_labelLayer
10
20.9009369
20
3.9342786
40
0.4327347
50
73.5222865
51
90.5691473
0
ARC
8
bottom_labelLayer
10
20.9263143
20
4.0264824
40
0.3371245
50
41.1445838
51
73.2133385
0
ARC
8
bottom_labelLayer
10
20.877871
20
3.9848462
40
0.4010002
50
13.5015109
51
41.0703569
0
ARC
8
bottom_labelLayer
10
20.6907209
20
3.9358708
40
0.5944254
50
1.1276383
51
13.8800978
0
ARC
8
bottom_labelLayer
10
20.5292622
20
3.9272308
40
0.7560426
50
359.9919066
51
1.5414916
0
ARC
8
bottom_labelLayer
10
21.289669
20
3.9237772
40
0.6521501
50
179.7059617
51
187.9159237
0
ARC
8
bottom_labelLayer
10
21.0504764
20
3.8894196
40
0.4105063
50
187.7639787
51
200.0976317
0
ARC
8
bottom_labelLayer
10
20.918711
20
3.8411413
40
0.2701749
50
200.0846401
51
216.9129705
0
ARC
8
bottom_labelLayer
10
20.8705909
20
3.8067816
40
0.2110687
50
217.30083
51
261.7100043
0
ARC
8
bottom_labelLayer
10
20.8929275
20
3.913371
40
0.3198358
50
260.5034365
51
270.2478638
0
ARC
8
bottom_labelLayer
10
20.8971912
20
3.8926516
40
0.2991274
50
269.4483204
51
284.7254536
0
ARC
8
bottom_labelLayer
10
20.9208712
20
3.8048263
40
0.2081684
50
284.566332
51
322.6333679
0
ARC
8
bottom_labelLayer
10
20.8655096
20
3.8448234
40
0.2764489
50
323.0087645
51
342.639058
0
ARC
8
bottom_labelLayer
10
20.7071599
20
3.8965773
40
0.4430327
50
342.3614945
51
353.7538611
0
ARC
8
bottom_labelLayer
10
20.4735009
20
3.9247409
40
0.6783737
50
353.536429
51
0.2012729
0
ARC
8
bottom_labelLayer
10
20.509321
20
3.9304036
40
0.6425578
50
359.707563
51
7.8972475
0
ARC
8
bottom_labelLayer
10
20.7446423
20
3.9641384
40
0.4048347
50
7.7440409
51
20.0689922
0
ARC
8
bottom_labelLayer
10
20.8757758
20
4.0122589
40
0.265151
50
20.0257815
51
37.4351458
0
ARC
8
bottom_labelLayer
10
20.9192835
20
4.0431321
40
0.2118464
50
37.957717
51
80.4006005
0
ARC
8
bottom_labelLayer
10
20.8945602
20
3.9328196
40
0.324792
50
79.3453462
51
90.3176532
0
ARC
8
bottom_labelLayer
10
20.889982
20
3.9511394
40
0.30648
50
89.4807348
51
103.880672
0
ARC
8
bottom_labelLayer
10
20.8642286
20
4.0492037
40
0.2051067
50
103.4684498
51
142.311904
0
ARC
8
bottom_labelLayer
10
20.9142913
20
4.0139958
40
0.2662627
50
142.9025375
51
162.3751116
0
ARC
8
bottom_labelLayer
10
21.0720424
20
3.9614244
40
0.4325331
50
162.065253
51
173.1675391
0
ARC
8
bottom_labelLayer
10
21.3180285
20
3.9300503
40
0.6805073
50
173.0086446
51
180.2463854
0
LINE
8
bottom_labelLayer
10
22.7236033
20
3.5012201
11
22.5948236
21
3.5012201
0
LINE
8
bottom_labelLayer
10
22.5948236
20
3.5012201
11
22.5948236
21
4.0543521
0
LINE
8
bottom_labelLayer
10
22.1813322
20
3.9759982
11
22.1813322
21
3.5012201
0
LINE
8
bottom_labelLayer
10
22.1813322
20
3.5012201
11
22.0525525
21
3.5012201
0
LINE
8
bottom_labelLayer
10
22.0525525
20
3.5012201
11
22.0525525
21
4.0543521
0
LINE
8
bottom_labelLayer
10
21.6398369
20
3.9472943
11
21.6398369
21
3.5012201
0
LINE
8
bottom_labelLayer
10
21.6398369
20
3.5012201
11
21.5110572
21
3.5012201
0
LINE
8
bottom_labelLayer
10
21.5110572
20
3.5012201
11
21.5110572
21
4.3514763
0
LINE
8
bottom_labelLayer
10
21.5110572
20
4.3514763
11
21.6157877
21
4.3514763
0
LINE
8
bottom_labelLayer
10
21.6157877
20
4.3514763
11
21.6367337
21
4.2351091
0
LINE
8
bottom_labelLayer
10
21.6367337
20
4.2351091
11
21.64294
21
4.2351091
0
LINE
8
bottom_labelLayer
10
22.1549556
20
4.2226966
11
22.1611619
21
4.2226966
0
LINE
8
bottom_labelLayer
10
22.7236033
20
4.0559037
11
22.7236033
21
3.5012201
0
ARC
8
bottom_labelLayer
10
22.2149082
20
4.0563756
40
0.3799208
50
359.6948415
51
8.1469248
0
ARC
8
bottom_labelLayer
10
22.3548504
20
4.0770843
40
0.238457
50
7.986362
51
20.7948018
0
ARC
8
bottom_labelLayer
10
22.4322022
20
4.1067139
40
0.155625
50
20.7072234
51
40.0217949
0
ARC
8
bottom_labelLayer
10
22.4491719
20
4.1178176
40
0.1355106
50
41.0406923
51
73.1793007
0
ARC
8
bottom_labelLayer
10
22.4246171
20
4.0435535
40
0.2137123
50
72.639385
51
86.2566813
0
ARC
8
bottom_labelLayer
10
22.4167542
20
3.9587229
40
0.298884
50
85.8142655
51
90.0690612
0
ARC
8
bottom_labelLayer
10
22.4138617
20
3.9262386
40
0.3313779
50
89.5621651
51
101.2959375
0
ARC
8
bottom_labelLayer
10
22.3889034
20
4.0457288
40
0.2093162
50
101.0032026
51
121.7841506
0
ARC
8
bottom_labelLayer
10
22.3699308
20
4.0796003
40
0.1705395
50
122.3597934
51
140.2882994
0
ARC
8
bottom_labelLayer
10
22.4040681
20
4.0545706
40
0.2128078
50
140.9766471
51
161.1698455
0
ARC
8
bottom_labelLayer
10
22.532669
20
4.0088048
40
0.3493022
50
160.8731732
51
172.5271264
0
ARC
8
bottom_labelLayer
10
22.7475605
20
3.9791275
40
0.5662301
50
172.3776559
51
180.1828519
0
ARC
8
bottom_labelLayer
10
22.9088555
20
3.9758891
40
0.7275235
50
179.887276
51
179.9914078
0
ARC
8
bottom_labelLayer
10
21.6726371
20
4.0563756
40
0.3799208
50
359.6948415
51
8.1469248
0
ARC
8
bottom_labelLayer
10
21.8125793
20
4.0770843
40
0.238457
50
7.986362
51
20.7948018
0
ARC
8
bottom_labelLayer
10
21.8899311
20
4.1067139
40
0.155625
50
20.7072234
51
40.0217949
0
ARC
8
bottom_labelLayer
10
21.9072528
20
4.1180595
40
0.1350862
50
41.0613178
51
72.8992882
0
ARC
8
bottom_labelLayer
10
21.8822336
20
4.043577
40
0.2136424
50
72.3598769
51
85.9560268
0
ARC
8
bottom_labelLayer
10
21.8737671
20
3.9560676
40
0.3015394
50
85.5239181
51
90.0798155
0
ARC
8
bottom_labelLayer
10
21.8708758
20
3.9377604
40
0.319856
50
89.557327
51
101.483063
0
ARC
8
bottom_labelLayer
10
21.8463273
20
4.0527828
40
0.2022521
50
101.1548304
51
123.0654447
0
ARC
8
bottom_labelLayer
10
21.8296402
20
4.081852
40
0.1687967
50
123.7020432
51
142.3018727
0
ARC
8
bottom_labelLayer
10
21.86873
20
4.0553348
40
0.2159611
50
143.0771106
51
161.3913542
0
ARC
8
bottom_labelLayer
10
22.0262896
20
3.999688
40
0.3830485
50
161.0233858
51
171.4470313
0
ARC
8
bottom_labelLayer
10
22.2871277
20
3.9588265
40
0.6470649
50
171.3040898
51
178.3502595
0
ARC
8
bottom_labelLayer
10
22.5366064
20
3.9476847
40
0.8967697
50
178.0975825
51
180.0249448
0
ARC
8
bottom_labelLayer
10
21.8611099
20
4.1068146
40
0.253096
50
117.1209152
51
149.5423856
0
ARC
8
bottom_labelLayer
10
21.8869408
20
4.0609047
40
0.3057405
50
93.834337
51
117.5073044
0
ARC
8
bottom_labelLayer
10
21.8940752
20
3.9976837
40
0.3693082
50
89.9661885
51
94.2828124
0
ARC
8
bottom_labelLayer
10
21.8983492
20
3.9453805
40
0.421631
50
77.5572838
51
90.5511899
0
ARC
8
bottom_labelLayer
10
21.937473
20
4.1136599
40
0.248882
50
52.7025853
51
78.0054803
0
ARC
8
bottom_labelLayer
10
21.9514108
20
4.1395909
40
0.219857
50
22.2098033
51
51.4970775
0
ARC
8
bottom_labelLayer
10
22.3944518
20
4.088998
40
0.2688857
50
119.4041928
51
150.1829352
0
ARC
8
bottom_labelLayer
10
22.4242476
20
4.0437019
40
0.3229967
50
118.2588933
51
120.0638383
0
ARC
8
bottom_labelLayer
10
22.4241878
20
4.0403329
40
0.3259399
50
95.8634989
51
117.9692267
0
ARC
8
bottom_labelLayer
10
22.435217
20
3.9605853
40
0.406407
50
89.9194322
51
96.2617157
0
ARC
8
bottom_labelLayer
10
22.4387613
20
3.9193669
40
0.4476349
50
79.9360063
51
90.3805182
0
ARC
8
bottom_labelLayer
10
22.468588
20
4.0808973
40
0.2833801
50
62.9724484
51
80.1666277
0
ARC
8
bottom_labelLayer
10
22.499768
20
4.1448676
40
0.2122311
50
44.2290834
51
62.6229675
0
ARC
8
bottom_labelLayer
10
22.490493
20
4.1407706
40
0.221763
50
19.5612456
51
43.3160269
0
ARC
8
bottom_labelLayer
10
22.3558096
20
4.0901827
40
0.3656196
50
7.5042607
51
19.9646459
0
ARC
8
bottom_labelLayer
10
22.1329379
20
4.0588857
40
0.5906728
50
359.7107354
51
7.6906895
0
ENDSEC
0
EOF